<?xml version="1.0" encoding="utf-8"?>
<!-- Generator: Adobe Illustrator 27.7.0, SVG Export Plug-In . SVG Version: 6.00 Build 0)  -->
<svg version="1.1" id="Layer_1" xmlns="http://www.w3.org/2000/svg" xmlns:xlink="http://www.w3.org/1999/xlink" x="0px" y="0px"
	 viewBox="0 0 1440 1161.9" style="enable-background:new 0 0 1440 1161.9;" xml:space="preserve">
<style type="text/css">
	.st0{fill:none;}
	.st1{opacity:0.8;fill:url(#SVGID_1_);enable-background:new    ;}
	.st2{enable-background:new    ;}
	.st3{fill:#E9E9E9;}
	.st4{opacity:0.8;fill:url(#SVGID_00000029728512438639293840000001568669076076946845_);enable-background:new    ;}
	.st5{fill:url(#SVGID_00000122720227283134255160000013513465225442093959_);}
	.st6{opacity:0.33;fill:#B9B4FC;enable-background:new    ;}
	.st7{opacity:0.47;}
	.st8{opacity:0.33;fill:#FAFAFC;enable-background:new    ;}
	.st9{opacity:0.8;fill:url(#SVGID_00000038383941520799736110000009351102294069884804_);enable-background:new    ;}
	.st10{fill:url(#SVGID_00000163047998390163177210000013413041079633288353_);}
	.st11{opacity:0.51;fill:#FAFAFC;enable-background:new    ;}
	.st12{opacity:0.44;fill:url(#SVGID_00000102506722586039833900000016214060886864610748_);enable-background:new    ;}
	.st13{opacity:0.44;fill:url(#SVGID_00000099647729006241900950000005893720035100531087_);enable-background:new    ;}
	.st14{fill:url(#SVGID_00000118372819312000647570000008294953548411025027_);}
	.st15{opacity:0.18;fill:#FAFAFC;enable-background:new    ;}
	.st16{opacity:0.41;fill:#E5E5EC;enable-background:new    ;}
	.st17{opacity:0.63;fill:url(#SVGID_00000173118657092364037370000003580277391513409684_);enable-background:new    ;}
	.st18{opacity:0.63;fill:url(#SVGID_00000166645061738840432020000006003231699662489788_);enable-background:new    ;}
	.st19{fill:#FFFFFF;}
	.st20{opacity:0.54;fill:url(#SVGID_00000164483906643923788790000001406152631631278783_);enable-background:new    ;}
	.st21{opacity:0.54;fill:url(#SVGID_00000013168771592970443050000003565131343082729856_);enable-background:new    ;}
	.st22{fill:#1F68AC;}
	.st23{fill:#15518B;}
	.st24{fill:#4388C6;}
	.st25{opacity:0.54;fill:url(#SVGID_00000001659448098918777310000007992540538980502204_);enable-background:new    ;}
	.st26{opacity:0.36;}
	.st27{fill:#4383F7;}
	.st28{fill:#3C79DE;}
	.st29{fill:#FCFCFC;}
	.st30{opacity:0.22;fill:#FCFCFC;enable-background:new    ;}
	.st31{opacity:0.75;fill:url(#SVGID_00000140706004901545622050000005549091608518405270_);enable-background:new    ;}
	.st32{fill:#32678F;}
	.st33{opacity:0.65;fill:#32678F;enable-background:new    ;}
	.st34{opacity:0.75;fill:url(#SVGID_00000036967743381401502610000000505121444541267636_);enable-background:new    ;}
	.st35{opacity:0.43;}
	.st36{clip-path:url(#SVGID_00000107556330552968541120000017227163513310626189_);}
	.st37{fill:url(#SVGID_00000082364065930124508550000011798143932234546827_);}
	.st38{fill:#29B2E5;}
	.st39{opacity:0.34;}
	.st40{opacity:0.6;fill:#FDCB02;enable-background:new    ;}
	.st41{opacity:0.6;fill:#FD0000;enable-background:new    ;}
	.st42{opacity:0.54;fill:url(#SVGID_00000076600657844207320810000009629727900031669945_);enable-background:new    ;}
	.st43{opacity:0.42;fill:#FC351F;enable-background:new    ;}
	.st44{opacity:0.63;}
	.st45{fill:url(#SVGID_00000116946174510896620250000012261425882262763448_);}
	.st46{fill:url(#SVGID_00000181066505945177456620000002569936632193166517_);}
	.st47{fill:url(#SVGID_00000103954883552254434900000001088547524662811812_);}
	.st48{fill:url(#SVGID_00000104684127167334252500000002702880299391014808_);}
	.st49{fill:url(#SVGID_00000115505998630221895570000009733967541971878036_);}
	.st50{fill:url(#SVGID_00000111189044361355465430000016891665923694791075_);}
	.st51{fill:url(#SVGID_00000170239169199986781710000017345613317087619231_);}
	.st52{opacity:0.4;fill:none;stroke:#FFFFFF;stroke-width:2;stroke-linecap:round;stroke-linejoin:round;stroke-dasharray:4,5.6;}

  @keyframes moveDottedLine {
  0% {
    stroke-dashoffset: 0;
  }
  100% {
    stroke-dashoffset: 1000;
  }
}

.st52 {
  animation: moveDottedLine 4s linear infinite;
  color: blue !important;
  margin-top: 100rem !important;
}

</style>
<polyline class="st0" points="1440,1161.9 0,1161.9 0,0 1440,0 "/>
<linearGradient id="SVGID_1_" gradientUnits="userSpaceOnUse" x1="1041.2089" y1="503.2069" x2="1385.0389" y2="487.2669" gradientTransform="matrix(1 0 0 1 0 82)">
	<stop  offset="0" style="stop-color:#163270"/>
	<stop  offset="1" style="stop-color:#2F4D97"/>
</linearGradient>
<path class="st1" d="M1178.6,538.8h152.6c20,0,36.3,16.2,36.3,36.3v0.4c0,20-16.2,36.3-36.3,36.3h-152.6c-20,0-36.3-16.2-36.3-36.3
	v-0.4C1142.3,555.1,1158.6,538.8,1178.6,538.8z"/>
<g>
	<g class="st2">
		<path class="st3" d="M1248.9,579.3v-10.8h1.2v10.8H1248.9z M1249.7,579.3v-1h3.4c0.7,0,1.2-0.2,1.6-0.5c0.4-0.4,0.6-0.8,0.6-1.5
			s-0.2-1.2-0.6-1.6c-0.4-0.4-1-0.6-1.7-0.6h-3.3v-1h3.2c0.7,0,1.2-0.2,1.6-0.5s0.6-0.8,0.6-1.4c0-0.6-0.2-1-0.5-1.3
			c-0.4-0.3-0.9-0.5-1.6-0.5h-3.3v-1h3.4c1,0,1.8,0.2,2.3,0.7s0.9,1.1,0.9,1.9c0,0.5-0.1,1-0.3,1.4c-0.2,0.4-0.5,0.7-0.9,0.9
			s-0.9,0.3-1.4,0.3l0.1-0.3c0.5,0,1,0.1,1.5,0.4s0.8,0.6,1,1.1s0.4,1,0.4,1.5s-0.1,1.1-0.4,1.5s-0.7,0.8-1.2,1s-1.1,0.4-1.7,0.4
			L1249.7,579.3L1249.7,579.3z"/>
		<path class="st3" d="M1258.4,579.3v-10.8h1.2v10.8H1258.4z"/>
	</g>
</g>
<g>
	<g class="st2">
		<path class="st3" d="M1264.2,572.7v-1h5.1v1H1264.2z M1268.2,579.5c-0.8,0-1.5-0.2-1.9-0.6s-0.6-0.9-0.6-1.7v-7.3l1.2-0.5v7.8
			c0,0.4,0.1,0.7,0.3,0.9s0.6,0.3,1.1,0.3c0.2,0,0.4,0,0.5,0s0.3-0.1,0.4-0.1v1c-0.1,0-0.2,0.1-0.4,0.1
			C1268.6,579.5,1268.4,579.5,1268.2,579.5z"/>
	</g>
</g>
<g>
	<g class="st2">
		<path class="st3" d="M1273.8,579.5c-0.8,0-1.4-0.2-2-0.5s-1-0.8-1.3-1.4c-0.3-0.6-0.5-1.3-0.5-2c0-0.8,0.2-1.4,0.5-2
			s0.8-1.1,1.3-1.4c0.6-0.3,1.2-0.5,2-0.5s1.4,0.2,2,0.5s1,0.8,1.3,1.4c0.3,0.6,0.5,1.3,0.5,2c0,0.8-0.2,1.4-0.5,2s-0.8,1.1-1.3,1.4
			C1275.2,579.3,1274.5,579.5,1273.8,579.5z M1273.8,578.5c0.5,0,1-0.1,1.3-0.4c0.4-0.3,0.7-0.6,0.9-1.1c0.2-0.5,0.3-1,0.3-1.6
			c0-0.9-0.2-1.6-0.7-2.1s-1.1-0.8-1.9-0.8s-1.4,0.3-1.8,0.8c-0.5,0.5-0.7,1.2-0.7,2.1c0,0.6,0.1,1.1,0.3,1.6
			c0.2,0.4,0.5,0.8,0.9,1.1C1272.8,578.3,1273.3,578.5,1273.8,578.5z"/>
		<path class="st3" d="M1282.5,579.5c-0.8,0-1.4-0.2-2-0.5s-1-0.8-1.3-1.4c-0.3-0.6-0.5-1.3-0.5-2c0-0.8,0.2-1.4,0.5-2
			s0.8-1.1,1.3-1.4c0.6-0.3,1.2-0.5,2-0.5s1.4,0.2,2,0.5s1,0.8,1.3,1.4c0.3,0.6,0.5,1.3,0.5,2c0,0.8-0.2,1.4-0.5,2s-0.8,1.1-1.3,1.4
			C1284,579.3,1283.3,579.5,1282.5,579.5z M1282.5,578.5c0.5,0,1-0.1,1.3-0.4c0.4-0.3,0.7-0.6,0.9-1.1c0.2-0.5,0.3-1,0.3-1.6
			c0-0.9-0.2-1.6-0.7-2.1s-1.1-0.8-1.9-0.8s-1.4,0.3-1.8,0.8c-0.5,0.5-0.7,1.2-0.7,2.1c0,0.6,0.1,1.1,0.3,1.6
			c0.2,0.4,0.5,0.8,0.9,1.1C1281.6,578.3,1282,578.5,1282.5,578.5z"/>
		<path class="st3" d="M1288.1,579.3v-10.8h1.2v10.8H1288.1z"/>
		<path class="st3" d="M1294.3,579.5c-0.9,0-1.7-0.2-2.2-0.7c-0.6-0.4-0.9-1.1-1-1.9h1.2c0.1,0.5,0.3,0.9,0.6,1.1
			c0.4,0.3,0.8,0.4,1.4,0.4c0.5,0,0.9-0.1,1.2-0.3s0.5-0.5,0.5-0.9c0-0.3-0.1-0.5-0.3-0.7c-0.2-0.2-0.5-0.4-1-0.5l-1.2-0.3
			c-0.7-0.2-1.2-0.5-1.6-0.8c-0.4-0.4-0.5-0.8-0.5-1.3c0-0.7,0.2-1.2,0.7-1.6c0.5-0.4,1.2-0.6,2-0.6s1.5,0.2,2,0.6
			c0.5,0.4,0.8,1,0.9,1.7h-1.2c-0.1-0.4-0.3-0.7-0.6-0.9c-0.3-0.2-0.7-0.3-1.2-0.3s-0.9,0.1-1.1,0.3c-0.3,0.2-0.4,0.4-0.4,0.8
			c0,0.3,0.1,0.5,0.3,0.7c0.2,0.2,0.5,0.4,1,0.5l1.2,0.3c0.7,0.2,1.2,0.5,1.6,0.9s0.5,0.9,0.5,1.4c0,0.7-0.3,1.2-0.8,1.6
			S1295.2,579.5,1294.3,579.5z"/>
	</g>
</g>
<linearGradient id="SVGID_00000002346885733665795410000009468124955688330937_" gradientUnits="userSpaceOnUse" x1="1142.2999" y1="363.3" x2="1367.5" y2="363.3" gradientTransform="matrix(1 0 0 1 0 82)">
	<stop  offset="0" style="stop-color:#163270"/>
	<stop  offset="1" style="stop-color:#2F4D97"/>
</linearGradient>
<path style="opacity:0.8;fill:url(#SVGID_00000002346885733665795410000009468124955688330937_);enable-background:new    ;" d="
	M1178.6,408.8h152.6c20,0,36.3,16.2,36.3,36.3v0.4c0,20-16.2,36.3-36.3,36.3h-152.6c-20,0-36.3-16.2-36.3-36.3v-0.4
	C1142.3,425.1,1158.6,408.8,1178.6,408.8z"/>
<linearGradient id="SVGID_00000074406855071053211030000002883510129745936533_" gradientUnits="userSpaceOnUse" x1="1108.3196" y1="332.7799" x2="1237.7797" y2="385.6199" gradientTransform="matrix(1 0 0 1 0 82)">
	<stop  offset="0" style="stop-color:#264087"/>
	<stop  offset="1" style="stop-color:#2F4D97"/>
</linearGradient>
<path style="fill:url(#SVGID_00000074406855071053211030000002883510129745936533_);" d="M1179.2,408.9h7.3
	c20,0,36.3,16.2,36.3,36.3l0,0c0,20-16.2,36.3-36.3,36.3h-7.3c-20,0-36.3-16.2-36.3-36.3l0,0C1143,425.1,1159.2,408.9,1179.2,408.9z
	"/>
<path class="st6" d="M1200.9,432.1V461c0,2.2-1.8,4-4,4h-32.6c-2.2,0-4-1.8-4-4v-20.5l10.1,2.9l10.2-2.6l10.2,8.9L1200.9,432.1
	L1200.9,432.1z"/>
<g>
	<g class="st7">
		<path class="st6" d="M1172.2,427.6L1172.2,427.6h-1.6c-0.7,0-1.2-0.5-1.2-1.2c0-0.6,0.5-1.1,1.2-1.1l0,0h1.6
			c0.7,0,1.2,0.5,1.2,1.2C1173.4,427.1,1172.9,427.6,1172.2,427.6z"/>
	</g>
	<g>
		<g class="st7">
			<path class="st8" d="M1166.7,427.6L1166.7,427.6h-1.6c-0.7,0-1.2-0.5-1.2-1.2c0-0.6,0.5-1.1,1.2-1.1l0,0h1.6
				c0.7,0,1.2,0.5,1.2,1.2C1167.9,427.1,1167.3,427.6,1166.7,427.6z"/>
		</g>
		<g class="st7">
			<path class="st6" d="M1177.8,427.6L1177.8,427.6h-1.6c-0.7,0-1.2-0.5-1.2-1.2c0-0.6,0.5-1.1,1.2-1.1l0,0h1.6
				c0.7,0,1.2,0.5,1.2,1.2C1179,427.1,1178.5,427.6,1177.8,427.6z"/>
		</g>
	</g>
</g>
<g>
	<g class="st2">
		<path class="st3" d="M1235.6,438.9v-10.8h1.2v10.8H1235.6z M1236.2,429.2v-1.1h6.5v1.1H1236.2z M1236.2,433.8v-1.1h6.1v1.1H1236.2
			z M1236.2,438.9v-1.1h6.6v1.1H1236.2z"/>
		<path class="st3" d="M1245,438.9v-7.7h1.1v1.8h0.1v5.8h-1.2V438.9z M1250.2,438.9v-5.1c0-0.6-0.1-1-0.4-1.3s-0.6-0.4-1.1-0.4
			s-0.9,0.1-1.2,0.3c-0.4,0.2-0.7,0.5-0.9,0.9s-0.3,0.8-0.3,1.4l-0.2-1.8c0.3-0.6,0.7-1,1.2-1.3s1.1-0.5,1.7-0.5
			c0.7,0,1.3,0.2,1.8,0.7s0.7,1,0.7,1.8v5.4h-1.3V438.9z M1255.4,438.9v-5.1c0-0.6-0.1-1-0.4-1.3s-0.6-0.4-1.1-0.4s-0.9,0.1-1.2,0.3
			c-0.4,0.2-0.7,0.5-0.9,0.9s-0.3,0.8-0.3,1.4l-0.3-1.8c0.3-0.6,0.7-1,1.2-1.3s1.1-0.5,1.7-0.5c0.7,0,1.3,0.2,1.8,0.7
			c0.5,0.4,0.7,1,0.7,1.8v5.4h-1.2V438.9z"/>
		<path class="st3" d="M1262.7,439c-0.7,0-1.3-0.2-1.8-0.5c-0.5-0.4-0.8-0.8-1-1.5h0.2v1.9h-1.1v-10.8h1.2v4.9h-0.2
			c0.2-0.6,0.5-1.1,1-1.4s1.1-0.5,1.8-0.5c0.7,0,1.3,0.2,1.8,0.5s0.9,0.8,1.2,1.4s0.4,1.3,0.4,2.1c0,0.8-0.1,1.5-0.4,2.1
			s-0.7,1.1-1.2,1.4C1264,438.9,1263.3,439,1262.7,439z M1262.5,438c0.8,0,1.4-0.3,1.8-0.8s0.6-1.2,0.6-2.2c0-0.9-0.2-1.6-0.6-2.1
			s-1-0.8-1.8-0.8s-1.4,0.3-1.8,0.8s-0.7,1.2-0.7,2.2c0,0.9,0.2,1.6,0.7,2.1C1261.1,437.7,1261.7,438,1262.5,438z"/>
		<path class="st3" d="M1271.1,439.1c-0.7,0-1.4-0.2-1.9-0.5c-0.6-0.3-1-0.8-1.3-1.4s-0.5-1.3-0.5-2.1c0-0.8,0.2-1.5,0.5-2.1
			s0.8-1.1,1.3-1.4s1.2-0.5,2-0.5c0.7,0,1.3,0.2,1.9,0.5c0.5,0.3,0.9,0.7,1.2,1.3c0.3,0.6,0.4,1.2,0.4,2c0,0.1,0,0.2,0,0.3
			c0,0.1,0,0.2,0,0.3h-6.3v-1h5.6l-0.4,0.6c0-0.9-0.2-1.6-0.6-2.1s-1-0.7-1.7-0.7c-0.8,0-1.4,0.3-1.8,0.8c-0.5,0.5-0.7,1.2-0.7,2.1
			s0.2,1.6,0.7,2.2s1.1,0.8,1.9,0.8c0.5,0,0.9-0.1,1.3-0.3c0.4-0.2,0.6-0.5,0.8-0.9h1.1c-0.2,0.7-0.7,1.3-1.3,1.7
			C1272.6,438.8,1271.9,439.1,1271.1,439.1z"/>
		<path class="st3" d="M1282,438.9v-1.8h0.2c-0.2,0.6-0.5,1-1,1.4c-0.5,0.3-1.1,0.5-1.8,0.5c-0.7,0-1.3-0.2-1.8-0.5
			s-0.9-0.8-1.2-1.4s-0.4-1.3-0.4-2.1c0-0.8,0.1-1.5,0.4-2.1s0.7-1.1,1.2-1.4s1.1-0.5,1.8-0.5c0.7,0,1.3,0.2,1.8,0.5s0.8,0.8,1,1.5
			h-0.2v-5.1h1.2v10.8h-1.2V438.9z M1279.5,438c0.8,0,1.4-0.3,1.8-0.8s0.7-1.2,0.7-2.2c0-0.9-0.2-1.6-0.7-2.1
			c-0.4-0.5-1-0.8-1.8-0.8s-1.4,0.3-1.8,0.8s-0.6,1.2-0.6,2.2c0,0.9,0.2,1.6,0.6,2.1C1278.2,437.7,1278.8,438,1279.5,438z"/>
		<path class="st3" d="M1291.1,438.9v-1.8h0.2c-0.2,0.6-0.5,1-1,1.4c-0.5,0.3-1.1,0.5-1.8,0.5c-0.7,0-1.3-0.2-1.8-0.5
			s-0.9-0.8-1.2-1.4c-0.3-0.6-0.4-1.3-0.4-2.1c0-0.8,0.1-1.5,0.4-2.1s0.7-1.1,1.2-1.4s1.1-0.5,1.8-0.5c0.7,0,1.3,0.2,1.8,0.5
			s0.8,0.8,1,1.5h-0.2v-5.1h1.2v10.8h-1.2V438.9z M1288.6,438c0.8,0,1.4-0.3,1.8-0.8s0.7-1.2,0.7-2.2c0-0.9-0.2-1.6-0.7-2.1
			c-0.4-0.5-1-0.8-1.8-0.8s-1.4,0.3-1.8,0.8s-0.6,1.2-0.6,2.2c0,0.9,0.2,1.6,0.6,2.1S1287.8,438,1288.6,438z"/>
		<path class="st3" d="M1297.7,439.1c-0.7,0-1.4-0.2-1.9-0.5c-0.6-0.3-1-0.8-1.3-1.4s-0.5-1.3-0.5-2.1c0-0.8,0.2-1.5,0.5-2.1
			s0.8-1.1,1.3-1.4s1.2-0.5,2-0.5c0.7,0,1.3,0.2,1.9,0.5c0.5,0.3,0.9,0.7,1.2,1.3c0.3,0.6,0.4,1.2,0.4,2c0,0.1,0,0.2,0,0.3
			c0,0.1,0,0.2,0,0.3h-6.3v-1h5.6l-0.4,0.6c0-0.9-0.2-1.6-0.6-2.1s-1-0.7-1.7-0.7c-0.8,0-1.4,0.3-1.8,0.8c-0.5,0.5-0.7,1.2-0.7,2.1
			s0.2,1.6,0.7,2.2c0.5,0.5,1.1,0.8,1.9,0.8c0.5,0,0.9-0.1,1.3-0.3c0.4-0.2,0.6-0.5,0.8-0.9h1.1c-0.2,0.7-0.7,1.3-1.3,1.7
			C1299.2,438.8,1298.5,439.1,1297.7,439.1z"/>
		<path class="st3" d="M1308.6,438.9v-1.8h0.1c-0.2,0.6-0.5,1-1,1.4c-0.5,0.3-1.1,0.5-1.8,0.5c-0.7,0-1.3-0.2-1.8-0.5
			s-0.9-0.8-1.2-1.4s-0.4-1.3-0.4-2.1c0-0.8,0.1-1.5,0.4-2.1s0.7-1.1,1.2-1.4s1.1-0.5,1.8-0.5c0.7,0,1.3,0.2,1.8,0.5s0.8,0.8,1,1.5
			h-0.2v-5.1h1.2v10.8h-1.1V438.9z M1306.1,438c0.8,0,1.4-0.3,1.8-0.8s0.7-1.2,0.7-2.2c0-0.9-0.2-1.6-0.7-2.1
			c-0.4-0.5-1-0.8-1.8-0.8s-1.4,0.3-1.8,0.8s-0.6,1.2-0.6,2.2c0,0.9,0.2,1.6,0.6,2.1C1304.8,437.7,1305.4,438,1306.1,438z"/>
	</g>
</g>
<g>
	<g class="st2">
		<path class="st3" d="M1245.4,460.1c-0.8,0-1.4-0.2-1.9-0.6s-0.7-0.9-0.7-1.6s0.2-1.2,0.7-1.6s1.1-0.6,2-0.8l2.7-0.5v1l-2.5,0.4
			c-0.6,0.1-1,0.2-1.3,0.5s-0.4,0.5-0.4,0.9s0.1,0.7,0.4,0.9c0.3,0.2,0.7,0.3,1.2,0.3c0.7,0,1.2-0.2,1.6-0.5s0.6-0.7,0.6-1.2
			l0.2,1.1c-0.2,0.5-0.5,0.9-0.9,1.2C1246.6,459.9,1246.1,460.1,1245.4,460.1z M1248,459.9c0-0.2-0.1-0.4-0.1-0.6s0-0.5,0-0.8h-0.1
			v-3.7c0-0.6-0.1-1-0.4-1.3s-0.7-0.4-1.3-0.4c-0.6,0-1,0.1-1.4,0.4c-0.3,0.2-0.5,0.6-0.6,1h-1.2c0-0.7,0.4-1.3,0.9-1.7
			c0.6-0.4,1.3-0.6,2.2-0.6c1,0,1.7,0.2,2.1,0.7s0.7,1.1,0.7,2v3.7c0,0.2,0,0.4,0,0.7c0,0.2,0.1,0.5,0.1,0.7h-0.9V459.9z"/>
	</g>
</g>
<g>
	<g class="st2">
		<path class="st3" d="M1251.3,459.9v-7.7h1.1v1.8h0.1v5.8h-1.2V459.9z M1256.8,459.9v-5c0-0.6-0.1-1-0.4-1.3s-0.7-0.4-1.3-0.4
			c-0.5,0-0.9,0.1-1.3,0.3c-0.4,0.2-0.7,0.5-0.9,0.9s-0.3,0.8-0.3,1.4l-0.2-1.8c0.3-0.6,0.7-1,1.2-1.3s1.1-0.5,1.8-0.5
			c0.8,0,1.4,0.2,1.9,0.7s0.7,1.1,0.7,1.8v5.3h-1.2V459.9z"/>
	</g>
</g>
<g>
	<g class="st2">
		<path class="st3" d="M1262.3,460.1c-0.8,0-1.4-0.2-1.9-0.6s-0.7-0.9-0.7-1.6s0.2-1.2,0.7-1.6s1.1-0.6,2-0.8l2.7-0.5v1l-2.5,0.4
			c-0.6,0.1-1,0.2-1.3,0.5s-0.4,0.5-0.4,0.9s0.1,0.7,0.4,0.9c0.3,0.2,0.7,0.3,1.2,0.3c0.7,0,1.2-0.2,1.6-0.5s0.6-0.7,0.6-1.2
			l0.2,1.1c-0.2,0.5-0.5,0.9-0.9,1.2C1263.6,459.9,1263,460.1,1262.3,460.1z M1265,459.9c0-0.2-0.1-0.4-0.1-0.6s0-0.5,0-0.8h-0.1
			v-3.7c0-0.6-0.1-1-0.4-1.3s-0.7-0.4-1.3-0.4c-0.6,0-1,0.1-1.4,0.4c-0.3,0.2-0.5,0.6-0.6,1h-1.2c0-0.7,0.4-1.3,0.9-1.7
			s1.3-0.6,2.2-0.6c0.9,0,1.7,0.2,2.1,0.7s0.7,1.1,0.7,2v3.7c0,0.2,0,0.4,0,0.7c0,0.2,0.1,0.5,0.1,0.7h-0.9V459.9z"/>
		<path class="st3" d="M1268.3,459.9v-10.8h1.2v10.8H1268.3z"/>
	</g>
</g>
<g>
	<g class="st2">
		<path class="st3" d="M1274.4,460l-3.4-7.7h1.3l3,6.9L1274.4,460z M1272.5,463l1.7-4l0.3-0.4l2.5-6.3h1.2l-4.4,10.7L1272.5,463
			L1272.5,463z"/>
	</g>
</g>
<g>
	<g class="st2">
		<path class="st3" d="M1279,453.3v-1h5.1v1H1279z M1283,460c-0.8,0-1.5-0.2-1.9-0.6s-0.6-0.9-0.6-1.7v-7.3l1.2-0.5v7.8
			c0,0.4,0.1,0.7,0.3,0.9s0.6,0.3,1.1,0.3c0.2,0,0.4,0,0.5,0s0.3-0.1,0.4-0.1v1c-0.1,0-0.2,0.1-0.4,0.1
			C1283.5,460,1283.3,460,1283,460z"/>
	</g>
</g>
<g>
	<g class="st2">
		<path class="st3" d="M1285.5,450.5v-1.4h1.4v1.4H1285.5z M1285.6,459.9v-7.7h1.2v7.7H1285.6z"/>
	</g>
</g>
<g>
	<g class="st2">
		<path class="st3" d="M1292.2,460.1c-0.7,0-1.3-0.2-1.9-0.5c-0.5-0.3-1-0.8-1.3-1.4s-0.5-1.3-0.5-2.1c0-0.8,0.2-1.4,0.5-2
			s0.7-1.1,1.3-1.4s1.2-0.5,1.9-0.5c0.6,0,1.1,0.1,1.5,0.3s0.8,0.5,1.1,0.9c0.3,0.4,0.5,0.9,0.6,1.4h-1.1c-0.1-0.5-0.3-0.9-0.7-1.2
			c-0.4-0.3-0.8-0.5-1.4-0.5c-0.5,0-0.9,0.1-1.3,0.4s-0.6,0.6-0.8,1c-0.2,0.4-0.3,1-0.3,1.5c0,0.6,0.1,1.1,0.3,1.6s0.5,0.8,0.8,1
			c0.4,0.2,0.8,0.4,1.3,0.4s1-0.2,1.4-0.5s0.6-0.7,0.7-1.2h1.1c-0.1,0.5-0.3,1-0.6,1.4c-0.3,0.4-0.7,0.7-1.1,0.9
			S1292.8,460.1,1292.2,460.1z"/>
		<path class="st3" d="M1299.8,460.1c-0.9,0-1.7-0.2-2.2-0.7c-0.6-0.4-0.9-1.1-1-1.9h1.2c0.1,0.5,0.3,0.9,0.6,1.1
			c0.4,0.3,0.8,0.4,1.4,0.4c0.5,0,0.9-0.1,1.2-0.3s0.5-0.5,0.5-0.9c0-0.3-0.1-0.5-0.3-0.7c-0.2-0.2-0.5-0.4-1-0.5l-1.2-0.3
			c-0.7-0.2-1.2-0.5-1.6-0.8c-0.4-0.4-0.5-0.8-0.5-1.3c0-0.7,0.2-1.2,0.7-1.6s1.2-0.6,2-0.6s1.5,0.2,2,0.6s0.8,1,0.9,1.7h-1.2
			c-0.1-0.4-0.3-0.7-0.6-0.9c-0.3-0.2-0.7-0.3-1.2-0.3s-0.9,0.1-1.1,0.3c-0.3,0.2-0.4,0.4-0.4,0.8c0,0.3,0.1,0.5,0.3,0.7
			c0.2,0.2,0.5,0.4,1,0.5l1.2,0.3c0.7,0.2,1.2,0.5,1.6,0.9s0.5,0.9,0.5,1.4c0,0.7-0.3,1.2-0.8,1.6S1300.7,460.1,1299.8,460.1z"/>
	</g>
</g>
<linearGradient id="SVGID_00000001648373400651631060000010124483488974459025_" gradientUnits="userSpaceOnUse" x1="1041.2089" y1="634.2069" x2="1385.0389" y2="618.2669" gradientTransform="matrix(1 0 0 1 0 82)">
	<stop  offset="0" style="stop-color:#163270"/>
	<stop  offset="1" style="stop-color:#2F4D97"/>
</linearGradient>
<path style="opacity:0.8;fill:url(#SVGID_00000001648373400651631060000010124483488974459025_);enable-background:new    ;" d="
	M1178.6,669.8h152.6c20,0,36.3,16.2,36.3,36.3v0.4c0,20-16.2,36.3-36.3,36.3h-152.6c-20,0-36.3-16.2-36.3-36.3v-0.4
	C1142.3,686.1,1158.6,669.8,1178.6,669.8z"/>
<linearGradient id="SVGID_00000082334029953267150700000017909748063225352330_" gradientUnits="userSpaceOnUse" x1="1108.3196" y1="593.78" x2="1237.7797" y2="646.6199" gradientTransform="matrix(1 0 0 1 0 82)">
	<stop  offset="0" style="stop-color:#163270"/>
	<stop  offset="1" style="stop-color:#2F4D97"/>
</linearGradient>
<path style="fill:url(#SVGID_00000082334029953267150700000017909748063225352330_);" d="M1179.2,669.9h7.3
	c20,0,36.3,16.2,36.3,36.3l0,0c0,20-16.2,36.3-36.3,36.3h-7.3c-20,0-36.3-16.2-36.3-36.3l0,0C1143,686.1,1159.2,669.9,1179.2,669.9z
	"/>
<g>
	<g class="st2">
		<path class="st3" d="M1239.4,699.9l4.2-10.8h1.1l-4.1,10.8H1239.4z M1241.5,695.5h5.6v1.1h-5.6V695.5z M1248,699.9l-4.1-10.8h1.2
			l4.2,10.8H1248z"/>
		<path class="st3" d="M1251.1,699.9v-10.8h1.2v10.8H1251.1z"/>
	</g>
</g>
<g>
	<g class="st2">
		<path class="st3" d="M1257.2,699.9l4.2-10.8h1.1l-4.1,10.8H1257.2z M1259.2,695.5h5.6v1.1h-5.6V695.5z M1265.7,699.9l-4.1-10.8
			h1.2l4.2,10.8H1265.7z"/>
	</g>
</g>
<g>
	<g class="st2">
		<path class="st3" d="M1271.5,703.1c-0.9,0-1.7-0.2-2.3-0.6c-0.6-0.4-1-1-1.1-1.7h1.1c0.1,0.4,0.4,0.7,0.7,1
			c0.4,0.2,0.9,0.4,1.6,0.4c0.8,0,1.4-0.2,1.8-0.6c0.4-0.4,0.6-1,0.6-1.9V698h0.1c-0.2,0.6-0.5,1-1,1.4s-1.1,0.5-1.8,0.5
			c-0.7,0-1.3-0.2-1.8-0.5s-0.9-0.8-1.2-1.4c-0.3-0.6-0.4-1.3-0.4-2c0-0.8,0.1-1.5,0.4-2.1s0.7-1,1.2-1.4c0.5-0.3,1.1-0.5,1.8-0.5
			c0.7,0,1.3,0.2,1.8,0.5s0.8,0.8,1,1.5h-0.1v-1.9h1.1v7.4c0,1.1-0.3,2-1,2.6S1272.7,703.1,1271.5,703.1z M1271.6,698.9
			c0.8,0,1.3-0.3,1.8-0.8c0.4-0.5,0.7-1.2,0.7-2.1c0-0.9-0.2-1.6-0.7-2.1c-0.4-0.5-1-0.8-1.8-0.8s-1.4,0.3-1.8,0.8s-0.7,1.2-0.7,2.1
			c0,0.9,0.2,1.6,0.7,2.1C1270.3,698.6,1270.9,698.9,1271.6,698.9z"/>
		<path class="st3" d="M1280.7,700.1c-0.7,0-1.4-0.2-1.9-0.5c-0.6-0.3-1-0.8-1.3-1.4c-0.3-0.6-0.5-1.3-0.5-2.1s0.2-1.5,0.5-2.1
			s0.8-1.1,1.3-1.4s1.2-0.5,2-0.5c0.7,0,1.3,0.2,1.9,0.5s0.9,0.7,1.2,1.3c0.3,0.6,0.4,1.2,0.4,2c0,0.1,0,0.2,0,0.3s0,0.2,0,0.3h-6.3
			v-1h5.6l-0.4,0.6c0-0.9-0.2-1.6-0.6-2.1s-1-0.7-1.7-0.7c-0.8,0-1.4,0.3-1.8,0.8c-0.5,0.5-0.7,1.2-0.7,2.1c0,0.9,0.2,1.6,0.7,2.2
			c0.5,0.5,1.1,0.8,1.9,0.8c0.5,0,0.9-0.1,1.3-0.3s0.6-0.5,0.8-0.9h1.1c-0.2,0.7-0.7,1.3-1.3,1.7
			C1282.2,699.8,1281.5,700.1,1280.7,700.1z"/>
	</g>
</g>
<g>
	<g class="st2">
		<path class="st3" d="M1286,699.9v-7.7h1.1v1.8h0.1v5.8h-1.2V699.9z M1291.5,699.9v-5c0-0.6-0.1-1-0.4-1.3s-0.7-0.4-1.3-0.4
			c-0.5,0-0.9,0.1-1.3,0.3s-0.7,0.5-0.9,0.9s-0.3,0.8-0.3,1.4l-0.2-1.8c0.3-0.6,0.7-1,1.2-1.3s1.1-0.5,1.8-0.5
			c0.8,0,1.4,0.2,1.9,0.7s0.7,1.1,0.7,1.8v5.3h-1.2V699.9z"/>
	</g>
</g>
<g>
	<g class="st2">
		<path class="st3" d="M1293.9,693.3v-1h5.1v1H1293.9z M1297.9,700c-0.8,0-1.5-0.2-1.9-0.6s-0.6-0.9-0.6-1.7v-7.3l1.2-0.5v7.8
			c0,0.4,0.1,0.7,0.3,0.9c0.2,0.2,0.6,0.3,1.1,0.3c0.2,0,0.4,0,0.5,0s0.3-0.1,0.4-0.1v1c-0.1,0-0.2,0.1-0.4,0.1
			C1298.3,700,1298.1,700,1297.9,700z"/>
	</g>
</g>
<g>
	<g class="st2">
		<path class="st3" d="M1303,700.1c-0.9,0-1.7-0.2-2.2-0.7c-0.6-0.4-0.9-1.1-1-1.9h1.2c0.1,0.5,0.3,0.9,0.6,1.1
			c0.4,0.3,0.8,0.4,1.4,0.4c0.5,0,0.9-0.1,1.2-0.3c0.3-0.2,0.4-0.5,0.4-0.9c0-0.3-0.1-0.5-0.3-0.7c-0.2-0.2-0.5-0.4-1-0.5l-1.2-0.3
			c-0.7-0.2-1.2-0.5-1.6-0.8c-0.3-0.4-0.5-0.8-0.5-1.3c0-0.7,0.2-1.2,0.7-1.6c0.5-0.4,1.2-0.6,2-0.6s1.5,0.2,2,0.6
			c0.5,0.4,0.8,1,0.9,1.7h-1.2c-0.1-0.4-0.3-0.7-0.6-0.9c-0.3-0.2-0.7-0.3-1.2-0.3s-0.9,0.1-1.1,0.3c-0.3,0.2-0.4,0.4-0.4,0.8
			c0,0.3,0.1,0.5,0.3,0.7c0.2,0.2,0.5,0.4,1,0.5l1.2,0.3c0.7,0.2,1.2,0.5,1.6,0.9s0.5,0.9,0.5,1.4c0,0.7-0.3,1.2-0.8,1.6
			S1303.9,700.1,1303,700.1z"/>
	</g>
</g>
<g>
	<g class="st2">
		<path class="st3" d="M1238.1,721.1c-0.8,0-1.5-0.1-2.1-0.4c-0.6-0.3-1-0.7-1.4-1.1c-0.3-0.5-0.5-1.1-0.5-1.7
			c0-0.8,0.3-1.5,0.8-2.1c0.6-0.6,1.3-1,2.3-1.2l0.7,0.8c-0.6,0.1-1,0.3-1.4,0.5s-0.7,0.5-0.9,0.8c-0.2,0.3-0.3,0.7-0.3,1.1
			c0,0.7,0.2,1.3,0.7,1.7s1.2,0.6,2,0.6c0.6,0,1.2-0.1,1.7-0.3s0.9-0.5,1.2-1s0.6-0.9,0.8-1.6c0.2-0.6,0.3-1.3,0.3-2.1h1.2
			c0,0.7-0.1,1.4-0.2,2c-0.2,0.6-0.4,1.2-0.7,1.7c-0.3,0.5-0.7,0.9-1.1,1.2s-0.9,0.6-1.4,0.8S1238.7,721.1,1238.1,721.1z
			 M1242.8,720.9l-5.8-6c-0.3-0.3-0.6-0.7-0.8-1s-0.4-0.6-0.5-0.8c-0.1-0.3-0.2-0.5-0.2-0.8c0-0.5,0.1-0.9,0.4-1.2
			c0.2-0.4,0.6-0.6,1-0.8s0.9-0.3,1.4-0.3s1,0.1,1.4,0.3s0.8,0.5,1,0.8s0.4,0.8,0.4,1.3c0,0.6-0.2,1.1-0.7,1.6s-1.2,0.9-2.2,1.2
			l-0.6-0.8c0.8-0.2,1.4-0.5,1.7-0.8c0.4-0.3,0.6-0.7,0.6-1.2c0-0.4-0.2-0.8-0.5-1s-0.7-0.4-1.2-0.4c-0.4,0-0.8,0.1-1.1,0.4
			s-0.4,0.6-0.4,1c0,0.2,0,0.4,0.1,0.6c0.1,0.2,0.2,0.4,0.4,0.7c0.2,0.3,0.5,0.6,0.9,1l6.1,6.3L1242.8,720.9L1242.8,720.9z"/>
		<path class="st3" d="M1253.7,721.1c-0.7,0-1.4-0.1-2-0.4c-0.6-0.3-1.2-0.7-1.6-1.2c-0.5-0.5-0.8-1.1-1.1-1.8
			c-0.2-0.7-0.4-1.4-0.4-2.2s0.1-1.6,0.4-2.2c0.2-0.7,0.6-1.3,1.1-1.8s1-0.9,1.6-1.2s1.3-0.4,2-0.4c0.8,0,1.5,0.2,2.2,0.5
			s1.2,0.8,1.6,1.4c0.4,0.6,0.7,1.3,0.8,2.1h-1.2c-0.1-0.9-0.5-1.6-1.1-2.1s-1.3-0.8-2.2-0.8c-0.8,0-1.4,0.2-2,0.6s-1,0.9-1.3,1.6
			c-0.3,0.7-0.5,1.4-0.5,2.3c0,0.9,0.2,1.7,0.5,2.3c0.3,0.7,0.8,1.2,1.3,1.6s1.2,0.6,2,0.6c0.9,0,1.7-0.3,2.3-0.8
			c0.6-0.5,0.9-1.2,1.1-2.1h1.2c-0.1,0.8-0.4,1.5-0.8,2.1s-0.9,1.1-1.6,1.4C1255.2,720.9,1254.5,721.1,1253.7,721.1z"/>
	</g>
</g>
<g>
	<g class="st2">
		<path class="st3" d="M1260.1,720.9v-10.8h1.2v10.8H1260.1z M1265.6,720.9v-5c0-0.6-0.1-1-0.4-1.3s-0.7-0.4-1.3-0.4
			c-0.5,0-0.9,0.1-1.3,0.3s-0.7,0.5-0.9,0.9c-0.2,0.4-0.3,0.8-0.3,1.4l-0.2-1.8c0.3-0.6,0.7-1,1.2-1.3s1.1-0.5,1.8-0.5
			c0.8,0,1.4,0.2,1.9,0.7s0.7,1.1,0.7,1.8v5.3h-1.2V720.9z"/>
	</g>
</g>
<g>
	<g class="st2">
		<path class="st3" d="M1271.1,721.1c-0.8,0-1.4-0.2-1.9-0.6c-0.5-0.4-0.7-0.9-0.7-1.6s0.2-1.2,0.7-1.6c0.5-0.4,1.1-0.6,2-0.8
			l2.7-0.5v1l-2.5,0.4c-0.6,0.1-1,0.2-1.3,0.5s-0.4,0.5-0.4,0.9s0.1,0.7,0.4,0.9s0.7,0.3,1.2,0.3c0.7,0,1.2-0.2,1.6-0.5
			s0.6-0.7,0.6-1.2l0.2,1.1c-0.2,0.5-0.5,0.9-0.9,1.2C1272.3,720.9,1271.8,721.1,1271.1,721.1z M1273.7,720.9c0-0.2-0.1-0.4-0.1-0.6
			c0-0.2,0-0.5,0-0.8h-0.1v-3.7c0-0.6-0.1-1-0.4-1.3s-0.7-0.4-1.3-0.4c-0.6,0-1,0.1-1.4,0.4c-0.3,0.2-0.5,0.6-0.6,1h-1.2
			c0-0.7,0.4-1.3,0.9-1.7c0.6-0.4,1.3-0.6,2.2-0.6c1,0,1.7,0.2,2.1,0.7s0.7,1.1,0.7,2v3.7c0,0.2,0,0.4,0,0.7c0,0.2,0.1,0.5,0.1,0.7
			h-0.9V720.9z"/>
	</g>
</g>
<g>
	<g class="st2">
		<path class="st3" d="M1275.9,714.3v-1h5.1v1H1275.9z M1279.9,721c-0.8,0-1.5-0.2-1.9-0.6s-0.6-0.9-0.6-1.7v-7.3l1.2-0.5v7.8
			c0,0.4,0.1,0.7,0.3,0.9c0.2,0.2,0.6,0.3,1.1,0.3c0.2,0,0.4,0,0.5,0s0.3-0.1,0.4-0.1v1c-0.1,0-0.2,0.1-0.4,0.1
			C1280.3,721,1280.1,721,1279.9,721z"/>
		<path class="st3" d="M1286.3,721c-0.7,0-1.3-0.2-1.8-0.5c-0.5-0.4-0.8-0.8-1-1.5h0.2v1.9h-1.1v-10.8h1.2v4.9h-0.2
			c0.2-0.6,0.5-1.1,1-1.4c0.5-0.3,1.1-0.5,1.8-0.5c0.7,0,1.3,0.2,1.8,0.5s0.9,0.8,1.2,1.4s0.4,1.3,0.4,2.1s-0.1,1.5-0.4,2.1
			s-0.7,1.1-1.2,1.4C1287.6,720.9,1287,721,1286.3,721z M1286.1,720c0.8,0,1.4-0.3,1.8-0.8s0.6-1.2,0.6-2.2c0-0.9-0.2-1.6-0.6-2.1
			s-1-0.8-1.8-0.8s-1.4,0.3-1.8,0.8s-0.7,1.2-0.7,2.2c0,0.9,0.2,1.6,0.7,2.1C1284.7,719.7,1285.3,720,1286.1,720z"/>
	</g>
</g>
<g>
	<g class="st2">
		<path class="st3" d="M1294.8,721.1c-0.8,0-1.4-0.2-2-0.5s-1-0.8-1.3-1.4c-0.3-0.6-0.5-1.3-0.5-2c0-0.8,0.2-1.4,0.5-2
			s0.8-1.1,1.3-1.4c0.6-0.3,1.2-0.5,2-0.5s1.4,0.2,2,0.5s1,0.8,1.3,1.4c0.3,0.6,0.5,1.3,0.5,2c0,0.8-0.2,1.4-0.5,2s-0.8,1.1-1.3,1.4
			C1296.2,720.9,1295.5,721.1,1294.8,721.1z M1294.8,720c0.5,0,1-0.1,1.3-0.4c0.4-0.3,0.7-0.6,0.9-1.1c0.2-0.5,0.3-1,0.3-1.6
			c0-0.9-0.2-1.6-0.7-2.1s-1.1-0.8-1.9-0.8s-1.4,0.3-1.8,0.8c-0.5,0.5-0.7,1.2-0.7,2.1c0,0.6,0.1,1.1,0.3,1.6
			c0.2,0.4,0.5,0.8,0.9,1.1C1293.8,719.9,1294.2,720,1294.8,720z"/>
	</g>
</g>
<g>
	<g class="st2">
		<path class="st3" d="M1299.3,714.3v-1h5.1v1H1299.3z M1303.3,721c-0.8,0-1.5-0.2-1.9-0.6c-0.4-0.4-0.6-0.9-0.6-1.7v-7.3l1.2-0.5
			v7.8c0,0.4,0.1,0.7,0.3,0.9s0.6,0.3,1.1,0.3c0.2,0,0.4,0,0.5,0s0.3-0.1,0.4-0.1v1c-0.1,0-0.2,0.1-0.4,0.1
			C1303.7,721,1303.5,721,1303.3,721z"/>
	</g>
</g>
<g>
	<g class="st2">
		<path class="st3" d="M1308.5,721.1c-0.9,0-1.7-0.2-2.2-0.7c-0.6-0.4-0.9-1.1-1-1.9h1.2c0.1,0.5,0.3,0.9,0.6,1.1
			c0.4,0.3,0.8,0.4,1.4,0.4c0.5,0,0.9-0.1,1.2-0.3s0.5-0.5,0.5-0.9c0-0.3-0.1-0.5-0.3-0.7c-0.2-0.2-0.5-0.4-1-0.5l-1.2-0.3
			c-0.7-0.2-1.2-0.5-1.6-0.8c-0.4-0.4-0.5-0.8-0.5-1.3c0-0.7,0.2-1.2,0.7-1.6c0.5-0.4,1.2-0.6,2-0.6s1.5,0.2,2,0.6
			c0.5,0.4,0.8,1,0.9,1.7h-1.2c-0.1-0.4-0.3-0.7-0.6-0.9c-0.3-0.2-0.7-0.3-1.2-0.3s-0.9,0.1-1.1,0.3c-0.3,0.2-0.4,0.4-0.4,0.8
			c0,0.3,0.1,0.5,0.3,0.7c0.2,0.2,0.5,0.4,1,0.5l1.2,0.3c0.7,0.2,1.2,0.5,1.6,0.9s0.5,0.9,0.5,1.4c0,0.7-0.3,1.2-0.8,1.6
			S1309.4,721.1,1308.5,721.1z"/>
	</g>
</g>
<g>
	<circle class="st11" cx="1185.9" cy="685.8" r="1.4"/>
	<circle class="st11" cx="1199.2" cy="690.6" r="1.4"/>
	<circle class="st11" cx="1205" cy="685.8" r="1.4"/>
	<circle class="st11" cx="1201.2" cy="695.3" r="1.4"/>
	<circle class="st11" cx="1205" cy="699.2" r="1.4"/>
	<circle class="st11" cx="1191.6" cy="697.3" r="1.4"/>
	<circle class="st11" cx="1195.4" cy="701.1" r="1.4"/>
	<circle class="st11" cx="1199.2" cy="704.9" r="1.4"/>
	<circle class="st11" cx="1201.2" cy="709.7" r="1.4"/>
	<circle class="st11" cx="1199.2" cy="716.4" r="1.4"/>
	<circle class="st11" cx="1194.5" cy="707.8" r="1.4"/>
	<circle class="st11" cx="1188.7" cy="704.9" r="1.4"/>
	<circle class="st11" cx="1182" cy="709.7" r="1.4"/>
	<circle class="st11" cx="1178.2" cy="704.9" r="1.4"/>
	<circle class="st11" cx="1156.2" cy="690.6" r="1.4"/>
	<circle class="st11" cx="1171.5" cy="715.4" r="1.4"/>
	<circle class="st11" cx="1177.2" cy="711.6" r="1.4"/>
	<circle class="st11" cx="1177.2" cy="717.3" r="1.4"/>
	<circle class="st11" cx="1184.9" cy="719.3" r="1.4"/>
	<circle class="st11" cx="1188.7" cy="712.6" r="1.4"/>
	<circle class="st11" cx="1194.5" cy="716.4" r="1.4"/>
	<circle class="st11" cx="1189.7" cy="724" r="1.4"/>
	<circle class="st11" cx="1199.2" cy="732.7" r="1.4"/>
	<circle class="st11" cx="1179.2" cy="724" r="1.4"/>
	<circle class="st11" cx="1177.2" cy="730.7" r="1.4"/>
	<circle class="st11" cx="1173.4" cy="724" r="1.4"/>
	<circle class="st11" cx="1169.6" cy="728.8" r="1.4"/>
	<circle class="st11" cx="1165.8" cy="726" r="1.4"/>
	<circle class="st11" cx="1158.1" cy="729.8" r="1.4"/>
	<circle class="st11" cx="1164.8" cy="732.7" r="1.4"/>
</g>
<linearGradient id="SVGID_00000129185072718650180560000000075715123311947180_" gradientUnits="userSpaceOnUse" x1="1147.1" y1="623.9" x2="1218.7999" y2="623.9" gradientTransform="matrix(1 0 0 1 0 82)">
	<stop  offset="0" style="stop-color:#5D5A5B;stop-opacity:0"/>
	<stop  offset="0.49" style="stop-color:#FAFAFC"/>
	<stop  offset="1" style="stop-color:#000000;stop-opacity:0"/>
</linearGradient>
<rect x="1147.1" y="705.4" style="opacity:0.44;fill:url(#SVGID_00000129185072718650180560000000075715123311947180_);enable-background:new    ;" width="71.7" height="1"/>
<linearGradient id="SVGID_00000169541625672178493790000010426423832949295030_" gradientUnits="userSpaceOnUse" x1="1181.9564" y1="655.1002" x2="1184.0665" y2="591.9102" gradientTransform="matrix(1 0 0 1 0 82)">
	<stop  offset="0" style="stop-color:#5D5A5B;stop-opacity:0"/>
	<stop  offset="0.49" style="stop-color:#FAFAFC"/>
	<stop  offset="1" style="stop-color:#000000;stop-opacity:0"/>
</linearGradient>
<rect x="1182.5" y="670" style="opacity:0.44;fill:url(#SVGID_00000169541625672178493790000010426423832949295030_);enable-background:new    ;" width="1" height="71.7"/>
<linearGradient id="SVGID_00000010300016514339468040000000573155024916275873_" gradientUnits="userSpaceOnUse" x1="1108.3196" y1="462.7799" x2="1237.7797" y2="515.6199" gradientTransform="matrix(1 0 0 1 0 82)">
	<stop  offset="0" style="stop-color:#163270"/>
	<stop  offset="1" style="stop-color:#2F4D97"/>
</linearGradient>
<path style="fill:url(#SVGID_00000010300016514339468040000000573155024916275873_);" d="M1179.2,538.9h7.3
	c20,0,36.3,16.2,36.3,36.3l0,0c0,20-16.2,36.3-36.3,36.3h-7.3c-20,0-36.3-16.2-36.3-36.3l0,0C1143,555.1,1159.2,538.9,1179.2,538.9z
	"/>
<path class="st15" d="M1183.7,592.1c-9.1,0-16.5-7.4-16.5-16.5s7.4-16.5,16.5-16.5s16.5,7.4,16.5,16.5S1192.7,592.1,1183.7,592.1z
	 M1183.7,565.3c-5.7,0-10.4,4.7-10.4,10.4s4.7,10.4,10.4,10.4s10.4-4.7,10.4-10.4S1189.4,565.3,1183.7,565.3z"/>
<path class="st16" d="M1195.6,587l-4.4-4.2c1.8-1.9,2.8-4.5,2.8-7.1c0-5.7-4.7-10.4-10.4-10.4v-6.1c9.1,0,16.5,7.4,16.5,16.5
	C1200.1,579.9,1198.5,583.9,1195.6,587L1195.6,587z"/>
<g>
	
		<linearGradient id="SVGID_00000099625787008300777600000017332815762236781231_" gradientUnits="userSpaceOnUse" x1="1261.9" y1="475.5531" x2="441.5" y2="487.4431" gradientTransform="matrix(1 0 0 1 0 82)">
		<stop  offset="0" style="stop-color:#FFFFFF;stop-opacity:0"/>
		<stop  offset="1" style="stop-color:#FFFFFF;stop-opacity:0.75"/>
	</linearGradient>
	<path style="opacity:0.63;fill:url(#SVGID_00000099625787008300777600000017332815762236781231_);enable-background:new    ;" d="
		M896.5,365.9h-97v1.8h97c17.3,0,31.3,14,31.3,31.3v329.1c0,17.3-14,31.3-31.3,31.3h-92v1.8h92c18.2,0,33.1-14.8,33.1-33.1V399
		C929.6,380.8,914.8,365.9,896.5,365.9z"/>
	
		<linearGradient id="SVGID_00000183224853692288966930000010901757250849297536_" gradientUnits="userSpaceOnUse" x1="1261.8401" y1="471.6969" x2="441.4401" y2="483.5868" gradientTransform="matrix(1 0 0 1 0 82)">
		<stop  offset="0" style="stop-color:#FFFFFF;stop-opacity:0"/>
		<stop  offset="1" style="stop-color:#FFFFFF;stop-opacity:0.75"/>
	</linearGradient>
	<path style="opacity:0.63;fill:url(#SVGID_00000183224853692288966930000010901757250849297536_);enable-background:new    ;" d="
		M628.1,759.4h-92c-17.3,0-31.3-14-31.3-31.3V399c0-17.3,14-31.3,31.3-31.3h97v-1.8h-97c-18.2,0-33.1,14.9-33.1,33.1v329.1
		c0,18.2,14.9,33.1,33.1,33.1h92V759.4z"/>
</g>
<g>
	<g class="st2">
		<path class="st19" d="M654.3,766.2c-1.7,0-3-0.4-4-1.2s-1.6-2-1.8-3.5h1.6c0.1,1.1,0.6,1.9,1.3,2.5s1.7,0.8,2.9,0.8
			c1,0,1.8-0.2,2.3-0.6c0.5-0.4,0.8-1,0.8-1.7s-0.2-1.2-0.5-1.6s-0.9-0.7-1.7-1l-2.4-0.8c-1.2-0.4-2.1-0.9-2.7-1.5
			c-0.6-0.6-0.9-1.4-0.9-2.3c0-0.8,0.2-1.4,0.6-2c0.4-0.6,0.9-1,1.6-1.3c0.7-0.3,1.5-0.5,2.5-0.5c1.4,0,2.6,0.4,3.5,1.1
			c0.9,0.8,1.4,1.8,1.5,3.2h-1.6c-0.2-1-0.5-1.7-1.1-2.2c-0.5-0.5-1.3-0.7-2.3-0.7s-1.7,0.2-2.2,0.6s-0.8,0.9-0.8,1.6
			c0,0.6,0.2,1.1,0.6,1.4c0.4,0.4,1,0.7,1.7,0.9l2.6,0.9c1.1,0.4,2,0.9,2.5,1.6c0.6,0.7,0.8,1.5,0.8,2.5c0,1.2-0.4,2.1-1.2,2.8
			C657,765.9,655.8,766.2,654.3,766.2z"/>
	</g>
</g>
<g>
	<g class="st2">
		<path class="st19" d="M665.6,766.3c-1,0-1.8-0.2-2.6-0.7c-0.7-0.5-1.3-1.1-1.8-1.9s-0.6-1.7-0.6-2.8s0.2-2,0.6-2.8
			c0.4-0.8,1-1.4,1.8-1.9c0.8-0.4,1.6-0.7,2.6-0.7c0.9,0,1.8,0.2,2.5,0.6c0.7,0.4,1.2,1,1.6,1.7c0.4,0.7,0.6,1.6,0.6,2.6
			c0,0.1,0,0.3,0,0.4c0,0.1,0,0.3-0.1,0.4h-8.4v-1.3h7.4l-0.5,0.7c0-1.2-0.3-2.2-0.8-2.8s-1.3-1-2.3-1s-1.8,0.3-2.4,1
			s-0.9,1.6-0.9,2.8s0.3,2.2,0.9,2.9s1.4,1.1,2.5,1.1c0.7,0,1.2-0.1,1.7-0.4c0.5-0.3,0.9-0.7,1.1-1.2h1.5c-0.3,0.9-0.9,1.7-1.7,2.2
			C667.6,766,666.7,766.3,665.6,766.3z"/>
	</g>
</g>
<g>
	<g class="st2">
		<path class="st19" d="M672.7,766.1v-10.2h1.5v2.4h0.1v7.8H672.7z M679.6,766.1v-6.8c0-0.8-0.2-1.3-0.5-1.7s-0.8-0.5-1.5-0.5
			c-0.6,0-1.2,0.1-1.7,0.4c-0.5,0.3-0.9,0.7-1.2,1.2s-0.4,1.1-0.4,1.8l-0.3-2.4c0.3-0.8,0.9-1.4,1.6-1.8c0.7-0.4,1.4-0.7,2.3-0.7
			c1,0,1.8,0.3,2.4,0.9c0.6,0.6,0.9,1.4,0.9,2.4v7.2L679.6,766.1L679.6,766.1z M686.5,766.1v-6.8c0-0.8-0.2-1.3-0.5-1.7
			s-0.8-0.5-1.5-0.5c-0.6,0-1.2,0.1-1.7,0.4c-0.5,0.3-0.9,0.7-1.2,1.2s-0.4,1.1-0.4,1.8l-0.4-2.4c0.3-0.8,0.9-1.4,1.6-1.8
			c0.7-0.4,1.5-0.7,2.3-0.7c1,0,1.8,0.3,2.4,0.9c0.6,0.6,0.9,1.4,0.9,2.4v7.2L686.5,766.1L686.5,766.1z"/>
	</g>
</g>
<g>
	<g class="st2">
		<path class="st19" d="M693.9,766.3c-1.1,0-1.9-0.3-2.5-0.8s-0.9-1.2-0.9-2.1s0.3-1.6,0.9-2.1s1.5-0.8,2.7-1l3.6-0.6v1.3l-3.3,0.5
			c-0.7,0.1-1.3,0.3-1.7,0.6s-0.6,0.7-0.6,1.2s0.2,0.9,0.5,1.2c0.4,0.3,0.9,0.4,1.6,0.4c0.9,0,1.6-0.2,2.2-0.6
			c0.6-0.4,0.9-0.9,0.9-1.6l0.3,1.4c-0.2,0.7-0.6,1.2-1.2,1.6S694.8,766.3,693.9,766.3z M697.4,766.1c-0.1-0.2-0.1-0.5-0.1-0.8
			s0-0.7,0-1.1h-0.1v-4.9c0-0.8-0.2-1.3-0.5-1.7c-0.4-0.4-0.9-0.5-1.7-0.5s-1.4,0.2-1.9,0.5s-0.7,0.8-0.8,1.3h-1.5
			c0.1-1,0.5-1.8,1.2-2.3c0.8-0.6,1.8-0.8,3-0.8c1.3,0,2.2,0.3,2.8,0.9s0.9,1.5,0.9,2.7v4.9c0,0.3,0,0.6,0.1,0.9
			c0,0.3,0.1,0.6,0.2,1h-1.6V766.1z"/>
	</g>
</g>
<g>
	<g class="st2">
		<path class="st19" d="M701.8,766.1v-10.2h1.5v2.4h0.1v7.8H701.8z M709.1,766.1v-6.7c0-0.8-0.2-1.4-0.6-1.7s-1-0.6-1.7-0.6
			s-1.3,0.1-1.8,0.4c-0.5,0.3-0.9,0.7-1.2,1.2s-0.4,1.1-0.4,1.8l-0.3-2.4c0.3-0.8,0.9-1.4,1.6-1.8c0.7-0.4,1.5-0.7,2.4-0.7
			c1.1,0,1.9,0.3,2.6,0.9c0.6,0.6,1,1.4,1,2.4v7.1L709.1,766.1L709.1,766.1z"/>
	</g>
</g>
<g>
	<g class="st2">
		<path class="st19" d="M712.2,757.2v-1.4h6.7v1.4H712.2z M717.6,766.2c-1.1,0-2-0.3-2.5-0.8s-0.8-1.3-0.8-2.2v-9.8l1.6-0.6v10.3
			c0,0.6,0.1,1,0.4,1.3c0.3,0.3,0.8,0.4,1.4,0.4c0.3,0,0.5,0,0.7-0.1c0.2,0,0.4-0.1,0.5-0.1v1.4c-0.1,0.1-0.3,0.1-0.6,0.1
			S717.9,766.2,717.6,766.2z"/>
	</g>
</g>
<g>
	<g class="st2">
		<path class="st19" d="M720.9,753.6v-1.9h1.8v1.9H720.9z M721,766.1v-10.2h1.6v10.2H721z"/>
	</g>
</g>
<g>
	<g class="st2">
		<path class="st19" d="M729.8,766.3c-0.9,0-1.8-0.2-2.5-0.7s-1.3-1.1-1.7-1.9c-0.4-0.8-0.6-1.7-0.6-2.8c0-1,0.2-1.9,0.6-2.7
			c0.4-0.8,1-1.4,1.7-1.9s1.5-0.7,2.5-0.7c0.8,0,1.4,0.1,2,0.4s1.1,0.7,1.5,1.2s0.6,1.2,0.8,1.9h-1.5c-0.1-0.7-0.4-1.2-0.9-1.6
			c-0.5-0.4-1.1-0.6-1.9-0.6c-0.7,0-1.2,0.2-1.7,0.5s-0.9,0.8-1.1,1.4c-0.3,0.6-0.4,1.3-0.4,2.1s0.1,1.5,0.4,2.1
			c0.3,0.6,0.6,1.1,1.1,1.4c0.5,0.3,1.1,0.5,1.7,0.5c0.7,0,1.3-0.2,1.8-0.6c0.5-0.4,0.8-0.9,0.9-1.6h1.5c-0.1,0.7-0.4,1.3-0.8,1.9
			c-0.4,0.5-0.9,1-1.5,1.2C731.2,766.1,730.6,766.3,729.8,766.3z"/>
	</g>
</g>
<g>
	<g class="st2">
		<path class="st19" d="M740.6,766.1v-14.4h1.6v14.4H740.6z M741.4,766.1v-1.4h8.2v1.4H741.4z"/>
	</g>
</g>
<g>
	<g class="st2">
		<path class="st19" d="M754.5,766.3c-1.1,0-1.9-0.3-2.5-0.8s-0.9-1.2-0.9-2.1s0.3-1.6,0.9-2.1s1.5-0.8,2.7-1l3.6-0.6v1.3l-3.3,0.5
			c-0.7,0.1-1.3,0.3-1.7,0.6s-0.6,0.7-0.6,1.2s0.2,0.9,0.5,1.2c0.4,0.3,0.9,0.4,1.6,0.4c0.9,0,1.6-0.2,2.2-0.6
			c0.6-0.4,0.8-0.9,0.8-1.6l0.3,1.4c-0.2,0.7-0.6,1.2-1.2,1.6S755.4,766.3,754.5,766.3z M758,766.1c-0.1-0.2-0.1-0.5-0.1-0.8
			s0-0.7,0-1.1h-0.1v-4.9c0-0.8-0.2-1.3-0.5-1.7c-0.4-0.4-0.9-0.5-1.7-0.5s-1.4,0.2-1.8,0.5c-0.5,0.3-0.7,0.8-0.8,1.3h-1.5
			c0.1-1,0.5-1.8,1.2-2.3c0.8-0.6,1.8-0.8,3-0.8c1.3,0,2.2,0.3,2.8,0.9s0.9,1.5,0.9,2.7v4.9c0,0.3,0,0.6,0.1,0.9
			c0,0.3,0.1,0.6,0.2,1H758V766.1z"/>
	</g>
</g>
<g>
	<g class="st2">
		<path class="st19" d="M765.3,766.2l-4.6-10.3h1.8l3.9,9.2L765.3,766.2z M762.8,770.2l2.3-5.3l0.4-0.6l3.3-8.4h1.6l-5.9,14.3H762.8
			z"/>
	</g>
</g>
<g>
	<g class="st2">
		<path class="st19" d="M776.3,766.3c-1,0-1.8-0.2-2.6-0.7c-0.7-0.5-1.3-1.1-1.8-1.9s-0.6-1.7-0.6-2.8s0.2-2,0.6-2.8
			c0.4-0.8,1-1.4,1.8-1.9c0.8-0.4,1.6-0.7,2.6-0.7c0.9,0,1.8,0.2,2.5,0.6c0.7,0.4,1.2,1,1.6,1.7c0.4,0.7,0.6,1.6,0.6,2.6
			c0,0.1,0,0.3,0,0.4c0,0.1,0,0.3-0.1,0.4h-8.4v-1.3h7.4l-0.5,0.7c0-1.2-0.3-2.2-0.8-2.8s-1.3-1-2.3-1s-1.8,0.3-2.4,1
			c-0.6,0.7-0.9,1.6-0.9,2.8s0.3,2.2,0.9,2.9c0.6,0.7,1.4,1.1,2.5,1.1c0.7,0,1.2-0.1,1.7-0.4c0.5-0.3,0.9-0.7,1.1-1.2h1.5
			c-0.3,0.9-0.9,1.7-1.7,2.2C778.2,766,777.3,766.3,776.3,766.3z"/>
		<path class="st19" d="M783.4,766.1v-10.2h1.5v2.6h0.1v7.6L783.4,766.1L783.4,766.1z M785,760.8l-0.3-2.4c0.2-0.9,0.7-1.5,1.3-2
			s1.3-0.7,2.1-0.7c0.3,0,0.6,0,0.7,0.1v1.5c-0.1,0-0.2,0-0.3,0s-0.3,0-0.4,0c-1,0-1.8,0.3-2.3,0.9C785.3,758.7,785,759.6,785,760.8
			z"/>
	</g>
</g>
<g>
	<g class="st2">
		<path class="st19" d="M656.9,370.7v-14.4h1.6v14.4H656.9z M657.7,357.7v-1.4h8.3v1.4H657.7z M657.7,364.5V363h7.8v1.4h-7.8V364.5z
			"/>
	</g>
</g>
<g>
	<g class="st2">
		<path class="st19" d="M668.3,358.2v-1.9h1.8v1.9H668.3z M668.4,370.7v-10.2h1.6v10.2H668.4z"/>
		<path class="st19" d="M678.2,370.8c-1,0-1.8-0.2-2.4-0.7s-1.1-1.1-1.3-2h0.2v2.5h-1.5v-14.4h1.6v6.6l-0.2-0.1
			c0.3-0.8,0.7-1.4,1.4-1.9c0.7-0.4,1.5-0.7,2.4-0.7s1.7,0.2,2.4,0.7c0.7,0.4,1.2,1.1,1.6,1.8c0.4,0.8,0.6,1.7,0.6,2.8
			c0,1.1-0.2,2-0.6,2.8c-0.4,0.8-0.9,1.4-1.6,1.9C680,370.6,679.2,370.8,678.2,370.8z M678,369.5c1,0,1.8-0.4,2.4-1
			c0.6-0.7,0.9-1.7,0.9-2.9c0-1.2-0.3-2.1-0.9-2.8s-1.4-1-2.4-1s-1.8,0.3-2.4,1c-0.6,0.7-0.9,1.7-0.9,2.9c0,1.2,0.3,2.1,0.9,2.8
			C676.2,369.1,677,369.5,678,369.5z"/>
		<path class="st19" d="M689.5,370.9c-1,0-1.8-0.2-2.6-0.7s-1.3-1.1-1.8-1.9s-0.6-1.7-0.6-2.8s0.2-2,0.6-2.8c0.4-0.8,1-1.4,1.8-1.9
			c0.8-0.4,1.6-0.7,2.6-0.7c0.9,0,1.8,0.2,2.5,0.6s1.2,1,1.6,1.7c0.4,0.7,0.6,1.6,0.6,2.6c0,0.1,0,0.3,0,0.4s0,0.3-0.1,0.4h-8.4
			v-1.3h7.4l-0.5,0.7c0-1.2-0.3-2.2-0.8-2.8s-1.3-1-2.3-1s-1.8,0.3-2.5,1s-0.9,1.6-0.9,2.8c0,1.2,0.3,2.2,0.9,2.9s1.5,1.1,2.5,1.1
			c0.7,0,1.2-0.1,1.7-0.4s0.9-0.7,1.1-1.2h1.5c-0.3,0.9-0.9,1.7-1.7,2.2C691.4,370.6,690.5,370.9,689.5,370.9z"/>
		<path class="st19" d="M696.6,370.7v-10.2h1.5v2.6h0.1v7.6H696.6z M698.2,365.3l-0.3-2.4c0.2-0.9,0.7-1.5,1.3-2s1.3-0.7,2.1-0.7
			c0.3,0,0.6,0,0.7,0.1v1.5c-0.1,0-0.2,0-0.3,0s-0.3,0-0.4,0c-1,0-1.8,0.3-2.3,0.9C698.4,363.3,698.2,364.2,698.2,365.3z"/>
		<path class="st19" d="M707.7,363.9v-1.4h8.2v1.4H707.7z M711.1,367.6v-8.7h1.4v8.7H711.1z"/>
	</g>
</g>
<g>
	<g class="st2">
		<path class="st19" d="M721.8,370.7l5.6-14.4h1.4l-5.4,14.4H721.8z M724.6,364.8h7.5v1.4h-7.5V364.8z M733.3,370.7l-5.4-14.4h1.5
			l5.6,14.4H733.3z"/>
	</g>
</g>
<g>
	<g class="st2">
		<path class="st19" d="M744.1,374.8v-6.5l0.3,0.1c-0.3,0.8-0.7,1.4-1.4,1.8c-0.7,0.5-1.5,0.7-2.4,0.7s-1.7-0.2-2.4-0.7
			c-0.7-0.4-1.2-1-1.6-1.8c-0.4-0.8-0.6-1.7-0.6-2.8c0-1.1,0.2-2,0.6-2.8c0.4-0.8,0.9-1.4,1.6-1.9c0.7-0.4,1.5-0.7,2.4-0.7
			c1,0,1.8,0.2,2.4,0.7s1.1,1.1,1.3,2h-0.2v-2.5h1.5v14.3L744.1,374.8L744.1,374.8z M740.9,369.5c1,0,1.8-0.3,2.4-1s0.9-1.7,0.9-2.9
			c0-1.2-0.3-2.1-0.9-2.8c-0.6-0.7-1.4-1-2.4-1s-1.8,0.3-2.4,1c-0.6,0.7-0.9,1.7-0.9,2.9c0,1.2,0.3,2.1,0.9,2.8
			C739.1,369.1,739.9,369.5,740.9,369.5z"/>
	</g>
</g>
<g>
	<g class="st2">
		<path class="st19" d="M752.2,370.9c-0.7,0-1.3-0.1-1.8-0.4s-0.9-0.7-1.2-1.2s-0.4-1.1-0.4-1.7v-7.1h1.6v6.7c0,0.8,0.2,1.4,0.6,1.7
			s0.9,0.6,1.6,0.6c0.6,0,1.2-0.1,1.7-0.4s0.9-0.7,1.2-1.2s0.4-1.1,0.4-1.8l0.3,2.4c-0.3,0.8-0.9,1.4-1.6,1.8
			C753.9,370.7,753.1,370.9,752.2,370.9z M756,370.7v-2.4h-0.1v-7.8h1.6v10.2L756,370.7L756,370.7z"/>
	</g>
</g>
<g>
	<g class="st2">
		<path class="st19" d="M763.3,370.9c-1.1,0-1.9-0.3-2.5-0.8s-0.9-1.2-0.9-2.1s0.3-1.6,0.9-2.1s1.5-0.8,2.7-1l3.6-0.6v1.3l-3.3,0.5
			c-0.7,0.1-1.3,0.3-1.7,0.6s-0.6,0.7-0.6,1.2s0.2,0.9,0.5,1.2s0.9,0.4,1.6,0.4c0.9,0,1.6-0.2,2.2-0.6c0.6-0.4,0.8-0.9,0.8-1.6
			l0.3,1.4c-0.2,0.7-0.6,1.2-1.2,1.6C765,370.7,764.2,370.9,763.3,370.9z M766.8,370.7c-0.1-0.2-0.1-0.5-0.1-0.8s0-0.7,0-1.1h-0.1
			v-4.9c0-0.8-0.2-1.3-0.5-1.7c-0.4-0.4-0.9-0.5-1.7-0.5s-1.4,0.2-1.8,0.5c-0.5,0.3-0.7,0.8-0.8,1.3h-1.5c0.1-1,0.5-1.8,1.2-2.3
			c0.8-0.6,1.8-0.8,3-0.8c1.3,0,2.2,0.3,2.8,0.9s0.9,1.5,0.9,2.7v4.9c0,0.3,0,0.6,0.1,0.9c0,0.3,0.1,0.6,0.2,1h-1.7V370.7z"/>
	</g>
</g>
<linearGradient id="SVGID_00000130614992414833200480000011671954035791743895_" gradientUnits="userSpaceOnUse" x1="379.2711" y1="265.5749" x2="249.1611" y2="259.6651" gradientTransform="matrix(1 0 0 1 0 82)">
	<stop  offset="0" style="stop-color:#213567"/>
	<stop  offset="1" style="stop-color:#0A193D;stop-opacity:0"/>
</linearGradient>
<path style="opacity:0.54;fill:url(#SVGID_00000130614992414833200480000011671954035791743895_);enable-background:new    ;" d="
	M318.9,313.1h55.8c18.2,0,33,14.8,33,33l0,0c0,18.2-14.8,33-33,33h-55.8c-18.2,0-33-14.8-33-33l0,0
	C285.9,327.9,300.6,313.1,318.9,313.1z"/>
<linearGradient id="SVGID_00000099628626161046340500000004090400167206036353_" gradientUnits="userSpaceOnUse" x1="166.401" y1="307.1073" x2="42.5811" y2="301.4773" gradientTransform="matrix(1 0 0 1 0 82)">
	<stop  offset="0" style="stop-color:#213567"/>
	<stop  offset="1" style="stop-color:#0A193D;stop-opacity:0"/>
</linearGradient>
<path style="opacity:0.54;fill:url(#SVGID_00000099628626161046340500000004090400167206036353_);enable-background:new    ;" d="
	M108.9,356.3H162c17.4,0,31.4,14.1,31.4,31.4l0,0c0,17.4-14.1,31.4-31.4,31.4h-53.1c-17.4,0-31.4-14.1-31.4-31.4l0,0
	C77.5,370.4,91.6,356.3,108.9,356.3z"/>
<g>
	<rect x="131.6" y="368.3" class="st22" width="7.8" height="38.8"/>
	<polygon class="st23" points="131.6,368.3 125.9,371.1 125.9,404.2 131.6,407.1 	"/>
	<polygon class="st24" points="139.4,368.3 145,371.1 145,404.2 139.4,407.1 	"/>
	<polygon class="st23" points="150.3,373.9 145,375.1 145,400.3 150.3,401.7 	"/>
	<polygon class="st24" points="150.3,401.6 153.3,400.2 153.3,375.4 150.3,373.9 	"/>
	<polygon class="st24" points="120.7,373.9 126,375.1 126,400.3 120.7,401.7 	"/>
	<polygon class="st23" points="120.7,401.6 117.7,400.2 117.7,375.4 120.7,373.9 	"/>
</g>
<linearGradient id="SVGID_00000034799564515748973040000011830515822836483737_" gradientUnits="userSpaceOnUse" x1="166.4019" y1="653.4073" x2="42.582" y2="647.7773" gradientTransform="matrix(1 0 0 1 0 82)">
	<stop  offset="0" style="stop-color:#213567"/>
	<stop  offset="1" style="stop-color:#0A193D;stop-opacity:0"/>
</linearGradient>
<path style="opacity:0.54;fill:url(#SVGID_00000034799564515748973040000011830515822836483737_);enable-background:new    ;" d="
	M108.9,702.6H162c17.4,0,31.4,14.1,31.4,31.4l0,0c0,17.4-14.1,31.4-31.4,31.4h-53.1c-17.4,0-31.4-14.1-31.4-31.4l0,0
	C77.5,716.7,91.6,702.6,108.9,702.6z"/>
<g class="st26">
	<path class="st27" d="M143.1,718.6h-15.2c-0.8,0-1.6,0.5-2,1.2l-7.6,13.1c-0.4,0.7-0.4,1.6,0,2.4l7.6,13.1c0.4,0.7,1.2,1.2,2,1.2
		h15.2c0.8,0,1.6-0.5,2-1.2l7.6-13.1c0.4-0.7,0.4-1.6,0-2.4l-7.6-13.1C144.7,719,143.9,718.6,143.1,718.6z"/>
	<path class="st28" d="M142,749.5h1.1c0.8,0,1.6-0.5,2-1.2l5-8.6l-10.2-10l1.2,4.7l-1.2,2.5l-2.5,1.8l-3.3,0.8l-2-0.3L142,749.5
		L142,749.5z"/>
	<path class="st29" d="M140.5,730.3c0.7,1.1,1.2,2.3,1.2,3.6c0,1.4-0.4,2.6-1.2,3.7c-0.1,0.2-0.1,0.3,0,0.4c0.7,0.7,1.4,1.4,2.1,2.1
		c0.3,0.3,0.3,0.5,0,0.8c-0.1,0.1-0.3,0.3-0.4,0.4c-0.3,0.3-0.4,0.3-0.7,0c-0.7-0.7-1.4-1.4-2.1-2.1c-0.1-0.2-0.2-0.2-0.4,0
		c-2.1,1.4-4.4,1.6-6.7,0.4c-0.1-0.1-0.2-0.1-0.3-0.2c-0.5-0.3-0.9-0.7-1.3-1.1c-1.6-1.9-2.1-4-1.3-6.4c0.8-2.3,2.5-3.8,4.9-4.2
		c2.5-0.4,4.5,0.5,6.1,2.4C140.4,730.2,140.4,730.2,140.5,730.3L140.5,730.3z"/>
	<path class="st27" d="M135.3,729.2c2.6,0,4.8,2.1,4.8,4.7s-2.1,4.8-4.7,4.8c-2.6,0-4.8-2.1-4.8-4.8S132.7,729.2,135.3,729.2
		L135.3,729.2z"/>
	<path class="st29" d="M132.2,735.5c0.3,0.6,0.7,1.1,1.3,1.4v-3.2h-1.3V735.5L132.2,735.5z"/>
	<path class="st29" d="M134.6,737.3c0.2,0,0.4,0.1,0.6,0.1c0.3,0,0.5,0,0.8-0.1v-5.2h-1.4L134.6,737.3L134.6,737.3z"/>
	<path class="st30" d="M137.1,736.9c0.6-0.4,1-0.9,1.3-1.5v-0.8h-1.3V736.9z"/>
</g>
<linearGradient id="SVGID_00000119838694301477116080000014026128673683896737_" gradientUnits="userSpaceOnUse" x1="166.4014" y1="565.1074" x2="42.5815" y2="559.4774" gradientTransform="matrix(1 0 0 1 0 82)">
	<stop  offset="0" style="stop-color:#213567"/>
	<stop  offset="1" style="stop-color:#0A193D;stop-opacity:0"/>
</linearGradient>
<path style="opacity:0.75;fill:url(#SVGID_00000119838694301477116080000014026128673683896737_);enable-background:new    ;" d="
	M108.9,614.3H162c17.4,0,31.4,14.1,31.4,31.4l0,0c0,17.4-14.1,31.4-31.4,31.4h-53.1c-17.4,0-31.4-14.1-31.4-31.4l0,0
	C77.5,628.4,91.6,614.3,108.9,614.3z"/>
<g>
	<path d="M154.9,650.8c-0.4,1.2-1.4,1.9-2.4,2.5c-1.3,0.8-2.7,1.1-4.1,1.2c-0.5,0-1,0-1.5,0c0,0.2,0,0.4-0.1,0.6
		c-0.1,1.2-0.2,2.5-0.3,3.7c-0.1,1.1-0.4,2.2-0.9,3.3c-0.8,1.7-2.1,2.8-4,3.3c-0.9,0.2-1.8,0.5-2.7,0.4c-1.8-0.1-3.1-1-3.9-2.7
		c-0.5-1.2-0.9-2.5-0.9-3.8c-0.1-1.1-0.1-2.2-0.2-3.2c0-0.2,0-0.3,0-0.4c-0.4,0.1-0.8,0.3-1.2,0.3c-1.6,0.3-3.1,0.2-4.6-0.5
		c-0.4-0.2-0.7-0.5-1.1-0.7c0,0,0,0,0-0.1c-0.1,0.1-0.2,0.1-0.3,0.2c-1.3,1-3,0.9-4.3-0.1c-0.9-0.7-1.6-1.7-2.2-2.7
		c-0.9-1.6-1.5-3.3-2.1-5c-0.9-2.9-1.7-5.9-2.1-9c-0.3-2.1-0.2-4.3,0.4-6.3c0.9-2.8,2.8-4.5,5.6-5.2c1.4-0.4,2.8-0.4,4.3-0.3
		c1.6,0.2,3.2,0.5,4.8,1c0.1,0,0.2,0,0.2,0c1.7-1,3.6-1.3,5.6-1.2c0.7,0,1.4,0.2,2.1,0.2c0.1,0,0.1,0,0.2,0c1.2-0.3,2.5-0.6,3.7-0.6
		c0.1,0,0.1,0,0.1,0c0.5,0,1.1,0,1.6,0c0.1,0,0.1,0,0.1,0c0.5,0,1,0.1,1.4,0.2c2.5,0.4,4.7,1.5,6.5,3.3c0.8,0.8,1.4,1.6,1.6,2.8
		c0.2,0.9,0.2,1.7,0.1,2.6c-0.1,1.5-0.4,2.9-0.7,4.3c-0.9,3.4-2.2,6.6-4,9.7c0,0.1-0.1,0.1-0.1,0.3c0.6-0.1,1.1-0.1,1.6-0.2
		c0.6-0.1,1.1-0.2,1.6-0.2c0.4,0,0.8,0.2,1.2,0.5c0.3,0.3,0.5,0.6,0.7,1L154.9,650.8L154.9,650.8z M148.1,649.4
		c0-0.1,0.1-0.1,0.1-0.2c2.4-3.8,4.2-7.9,5.1-12.3c0.3-1.4,0.5-2.8,0.3-4.3c-0.1-0.7-0.2-1.3-0.7-1.9c-0.5-0.6-1-1.1-1.6-1.6
		c-1.8-1.5-4-2.3-6.3-2.4c-1.9-0.1-3.9,0.1-5.7,0.7c-0.1,0-0.1,0-0.2,0c-0.8-0.1-1.5-0.3-2.3-0.3c-1.9-0.1-3.6,0.2-5.2,1.2
		c-0.1,0-0.2,0-0.2,0c-1.6-0.5-3.1-0.9-4.8-1.1c-1.4-0.2-2.9-0.1-4.3,0.2c-2,0.5-3.5,1.8-4.4,3.7c-0.6,1.4-0.8,2.8-0.8,4.3
		c0,1.3,0.2,2.5,0.4,3.8c0.5,2.8,1.2,5.5,2.2,8.2c0.5,1.5,1.1,2.9,1.9,4.2c0.4,0.8,0.9,1.5,1.6,2c0.6,0.5,1.3,0.7,2.1,0.5
		c0.6-0.2,1.1-0.5,1.6-1c0.7-0.8,1.3-1.5,2-2.3c0.4-0.5,0.9-1,1.3-1.4c0.7,0.4,1.4,0.6,2.3,0.6c-0.2,0.3-0.4,0.5-0.6,0.8
		c-0.2,0.3-0.5,0.5-0.9,0.6c-0.5,0.1-0.9,0.2-1.4,0.4c-0.4,0.1-0.9,0.2-1.2,0.5c-0.5,0.4-0.6,1-0.1,1.5c0.2,0.2,0.4,0.3,0.6,0.4
		c0.6,0.3,1.3,0.5,2,0.5c1.5,0.1,2.9-0.2,4-1.2c0,0,0.1,0,0.1-0.1c0,0.1,0,0.2,0,0.3c0,2,0,4,0.2,6c0.1,1,0.3,2,0.8,2.8
		c0.7,1.2,1.7,1.9,3.1,2c1.3,0.1,2.6-0.3,3.7-0.8c0.9-0.4,1.5-1.1,1.9-2c0.2-0.4,0.4-0.9,0.4-1.4c0.3-2.1,0.6-4.1,0.9-6.2
		c0.1-0.4,0.1-0.7,0.1-1.1c0.2,0,0.4,0.1,0.6,0.1c0.8,0.1,1.6,0.1,2.4,0c1.4-0.2,2.7-0.7,3.8-1.6c0.3-0.3,0.7-0.6,0.8-1
		c0.2-0.5,0-1.1-0.6-1.2c-0.3,0-0.6,0-0.9,0c-0.9,0.2-1.9,0.3-2.8,0.3C148.9,649.7,148.5,649.7,148.1,649.4L148.1,649.4z"/>
	<path class="st19" d="M148.1,649.5c0.4,0.3,0.8,0.3,1.3,0.3c1,0,1.9-0.1,2.8-0.3c0.3,0,0.6-0.1,0.9,0c0.6,0.1,0.8,0.6,0.6,1.2
		c-0.2,0.4-0.5,0.7-0.8,1c-1.1,0.9-2.4,1.4-3.8,1.6c-0.8,0.1-1.6,0.2-2.4,0c-0.2,0-0.4-0.1-0.6-0.1c0,0.4-0.1,0.8-0.1,1.1
		c-0.3,2.1-0.6,4.1-0.9,6.2c-0.1,0.5-0.2,0.9-0.4,1.4c-0.4,0.9-1,1.6-1.9,2c-1.2,0.6-2.4,0.9-3.7,0.8c-1.4-0.1-2.4-0.8-3.1-2
		c-0.5-0.9-0.7-1.8-0.8-2.8c-0.2-2-0.2-4-0.2-6c0-0.1,0-0.2,0-0.3c-0.1,0-0.1,0.1-0.1,0.1c-1.2,1-2.5,1.3-4,1.2
		c-0.7-0.1-1.4-0.2-2-0.5c-0.2-0.1-0.4-0.3-0.6-0.4c-0.5-0.5-0.4-1.1,0.1-1.5c0.4-0.3,0.8-0.4,1.2-0.5c0.5-0.1,0.9-0.2,1.4-0.4
		c0.4-0.1,0.7-0.3,0.9-0.6c0.2-0.2,0.4-0.5,0.6-0.8c-0.8,0-1.6-0.2-2.3-0.6c-0.4,0.5-0.9,1-1.3,1.4c-0.7,0.8-1.3,1.5-2,2.3
		c-0.4,0.5-0.9,0.8-1.6,1c-0.8,0.2-1.5-0.1-2.1-0.5c-0.7-0.5-1.2-1.2-1.6-2c-0.8-1.3-1.4-2.8-1.9-4.2c-0.9-2.7-1.6-5.5-2.2-8.2
		c-0.2-1.2-0.4-2.5-0.4-3.8c0-1.5,0.2-2.9,0.8-4.3c0.9-1.9,2.3-3.1,4.4-3.7c1.4-0.4,2.8-0.4,4.3-0.2c1.6,0.2,3.2,0.6,4.8,1.1
		c0.1,0,0.2,0,0.2,0c1.6-1,3.3-1.4,5.2-1.2c0.8,0,1.5,0.2,2.3,0.3c0.1,0,0.1,0,0.2,0c1.9-0.6,3.8-0.8,5.7-0.7
		c2.4,0.2,4.5,0.9,6.3,2.4c0.6,0.5,1.1,1,1.6,1.6c0.4,0.6,0.6,1.2,0.7,1.9c0.2,1.5,0,2.9-0.3,4.3c-0.9,4.4-2.7,8.5-5.1,12.3
		C148.2,649.4,148.1,649.4,148.1,649.5L148.1,649.5z M133.6,649.3c0.2,0,0.4,0,0.6,0c0.9,0.2,1.5,0.7,1.8,1.6
		c0.1,0.4,0.1,0.9,0.1,1.3c0,2.6-0.1,5.3,0.2,7.9c0.1,0.7,0.3,1.4,0.6,2c0.6,1,1.4,1.5,2.5,1.4c0.7,0,1.4-0.2,2.1-0.4
		c1.2-0.4,2.1-1.2,2.4-2.5c0.2-1.1,0.4-2.2,0.6-3.3c0.1-0.8,0.2-1.6,0.3-2.3s0.2-1.5,0.2-2.2c0.1-0.6,0.1-1.1,0.1-1.7
		c0.1-0.9,0.6-1.5,1.4-1.8c0.1,0,0.1,0,0.2-0.1c-0.1-0.1-0.1-0.2-0.2-0.3c-0.4-0.5-0.9-1.1-1.2-1.8c-0.2-0.4-0.4-0.8-0.6-1.2
		c-0.7-1.3-1.5-2.7-2-4.1c-0.4-1.1-0.7-2.2-0.5-3.3c0.1-0.9,0.5-1.6,1.3-2c0.9-0.5,1.9-0.6,2.9-0.5c0.2,0,0.3,0,0.5,0
		c0-0.1-0.1-0.2-0.1-0.3c-0.8-2-2-3.7-3.6-5c-2.4-2-5.2-2.8-8.4-2.4c-1.7,0.2-3.1,1.1-4.1,2.4c-0.8,1.1-1.3,2.3-1.7,3.5
		c-0.2,0.9-0.4,1.9-0.5,2.8c0.4-0.2,0.7-0.3,1-0.5c1-0.4,1.9-0.6,3-0.5c1.2,0.1,2.1,0.9,2.4,2.1c0.4,1.5,0.6,3,0.5,4.6
		c-0.1,1-0.2,1.9-0.6,2.8c-0.4,0.9-0.7,1.8-1.1,2.7C133.8,648.7,133.7,649,133.6,649.3L133.6,649.3z M129.1,649
		c-0.4-0.4-0.7-0.8-1-1.3c-0.8-1.1-1.1-2.4-0.9-3.7c0.1-1,0.2-2,0.2-3c0-0.7-0.1-1.4-0.1-2.1c-0.1-1.7,0.2-3.3,0.6-4.9
		c0.5-1.7,1.2-3.3,2.5-4.6c0,0,0,0,0-0.1h-0.1c-1.3-0.4-2.7-0.7-4.1-0.8c-1.1-0.1-2.2-0.1-3.4,0.2c-2,0.5-3.3,1.6-4.1,3.5
		c-0.3,0.9-0.5,1.8-0.6,2.7c-0.1,1-0.1,1.9,0.1,2.9c0.3,1.5,0.6,3.1,0.9,4.6c0.6,2.4,1.3,4.7,2.2,7c0.4,1,1,2.1,1.7,3
		c0.3,0.3,0.6,0.6,0.9,0.8c0.4,0.2,0.8,0.2,1.2,0c0.2-0.2,0.4-0.4,0.6-0.6c0.6-0.7,1.2-1.4,1.8-2C128.3,650,128.7,649.5,129.1,649
		L129.1,649z M147.4,648.3c0-0.1,0.1-0.1,0.1-0.2c2.1-3.5,3.7-7.2,4.6-11.2c0.3-1.4,0.5-2.8,0.3-4.2c-0.1-0.5-0.2-0.9-0.4-1.3
		c-0.5-0.6-1-1.1-1.6-1.6c-1.8-1.3-3.8-1.9-6-2c-0.7,0-1.4,0.1-2.1,0.1c-0.3,0-0.6,0.1-1,0.2c0.1,0.1,0.1,0.1,0.2,0.1
		c3.1,1.5,5.2,4,6.5,7.2c0.1,0.3,0.3,0.7,0.3,1.1c0.1,0.8,0,1.6-0.2,2.4c-0.2,1.2-0.2,2.3-0.1,3.5c0.1,0.8,0.2,1.7,0.2,2.5
		c0,1.1-0.2,2.1-0.8,3C147.3,648.1,147.3,648.2,147.4,648.3L147.4,648.3z M134.4,642.5c0-1.3-0.2-2.4-0.4-3.6
		c-0.1-0.7-0.5-1.2-1.2-1.4c-0.3-0.1-0.6-0.1-0.9-0.1c-1.2,0.1-2.2,0.5-3.2,1.1c-0.1,0.1-0.2,0.2-0.2,0.4c0,0.9,0.1,1.7,0.1,2.6
		c0,0.7-0.1,1.3-0.1,2c0,0.5-0.1,1,0,1.5c0.1,1.1,0.5,2,1.2,2.7c0.7,0.8,1.6,1.2,2.7,1.2c0.1,0,0.2,0,0.2-0.1c0.4-1,0.7-1.9,1.1-2.8
		C134.1,644.9,134.4,643.7,134.4,642.5L134.4,642.5z M146.5,647L146.5,647c0.1-0.1,0.1-0.1,0.1-0.2c0.2-0.6,0.4-1.2,0.4-1.8
		c0-1-0.1-2-0.2-3.1c-0.1-0.9-0.1-1.8,0.1-2.6c0.1-0.6,0.2-1.3,0.2-1.9c0-0.1,0-0.2-0.1-0.2c-0.7-0.1-1.4-0.1-2.1,0
		c-0.7,0.2-1.4,0.5-1.5,1.5c-0.1,0.6,0,1.1,0.2,1.6c0.3,1.2,0.8,2.3,1.4,3.4c0.5,1,1.1,2,1.6,3C146.4,647,146.5,647,146.5,647
		L146.5,647z M129.1,653.2C129.1,653.2,129.1,653.3,129.1,653.2c0.1,0.1,0.3,0.2,0.4,0.2c0.6,0.2,1.2,0.3,1.9,0.3
		c1.4,0,2.4-0.5,3.3-1.6c0.4-0.5,0.2-1.2-0.3-1.6c-0.4-0.2-0.6-0.2-0.8,0.1c-0.3,0.3-0.5,0.6-0.7,0.9c-0.4,0.6-1,1-1.7,1.2
		c-0.3,0.1-0.5,0.1-0.8,0.2C129.9,653.1,129.5,653.2,129.1,653.2L129.1,653.2z M152.2,650.7h-0.1c-1.1,0.2-2.1,0.3-3.2,0.2
		c-0.5-0.1-1-0.2-1.5-0.5c-0.1,0-0.2,0-0.2,0c-0.1,0-0.2,0.1-0.3,0.1c-0.3,0.1-0.5,0.3-0.6,0.7c0,0.1-0.1,0.2-0.1,0.4
		c0,0.5-0.1,0.5,0.4,0.6c0.1,0,0.2,0,0.4,0.1c1.1,0.1,2.1,0,3.2-0.3C150.9,651.6,151.6,651.2,152.2,650.7L152.2,650.7z"/>
	<path class="st32" d="M133.6,649.3c0.1-0.3,0.2-0.6,0.3-0.9c0.4-0.9,0.7-1.8,1.1-2.7c0.4-0.9,0.5-1.8,0.6-2.8
		c0.1-1.6-0.1-3.1-0.5-4.6c-0.3-1.2-1.2-1.9-2.4-2.1c-1-0.1-2,0.1-3,0.5c-0.3,0.1-0.7,0.3-1,0.5c0.1-1,0.2-1.9,0.5-2.8
		c0.4-1.3,0.9-2.5,1.7-3.5c1.1-1.3,2.4-2.2,4.1-2.4c3.1-0.4,5.9,0.4,8.4,2.4c1.6,1.4,2.8,3.1,3.6,5c0,0.1,0.1,0.2,0.1,0.3
		c-0.2,0-0.3,0-0.5,0c-1,0-2,0-2.9,0.5c-0.8,0.5-1.2,1.2-1.3,2c-0.2,1.2,0.1,2.2,0.5,3.3c0.5,1.4,1.2,2.8,2,4.1
		c0.2,0.4,0.4,0.8,0.6,1.2c0.3,0.6,0.7,1.2,1.2,1.8c0.1,0.1,0.1,0.2,0.2,0.3c-0.1,0-0.1,0.1-0.2,0.1c-0.9,0.3-1.3,0.9-1.4,1.8
		c-0.1,0.6-0.1,1.1-0.1,1.7c-0.1,0.7-0.2,1.5-0.2,2.2c-0.1,0.8-0.2,1.6-0.3,2.3c-0.2,1.1-0.3,2.2-0.6,3.3c-0.3,1.3-1.1,2.1-2.4,2.5
		c-0.7,0.2-1.4,0.4-2.1,0.4c-1.1,0-1.9-0.5-2.5-1.4c-0.4-0.6-0.6-1.3-0.6-2c-0.3-2.6-0.2-5.3-0.2-7.9c0-0.4,0.1-0.9-0.1-1.3
		c-0.3-0.9-0.9-1.5-1.8-1.6C134,649.3,133.8,649.3,133.6,649.3L133.6,649.3z"/>
	<path class="st32" d="M129.1,649c-0.4,0.5-0.9,0.9-1.3,1.4c-0.6,0.7-1.2,1.4-1.8,2c-0.2,0.2-0.4,0.4-0.6,0.6
		c-0.4,0.3-0.8,0.3-1.2,0c-0.4-0.2-0.7-0.5-0.9-0.8c-0.7-0.9-1.2-1.9-1.7-3c-1-2.3-1.7-4.6-2.2-7c-0.4-1.5-0.7-3.1-0.9-4.6
		c-0.2-1-0.2-1.9-0.1-2.9c0.1-0.9,0.2-1.8,0.6-2.7c0.7-1.9,2.1-3,4.1-3.5c1.1-0.2,2.2-0.3,3.4-0.2c1.4,0.1,2.7,0.4,4.1,0.8h0.1
		c0,0,0,0,0,0.1c-1.3,1.3-2,2.9-2.5,4.6c-0.4,1.6-0.7,3.2-0.6,4.9c0,0.7,0.1,1.4,0.1,2.1c0,1-0.1,2-0.2,3c-0.1,1.3,0.2,2.6,0.9,3.7
		C128.4,648.2,128.8,648.6,129.1,649L129.1,649z"/>
	<path class="st32" d="M147.4,648.3c-0.1-0.1-0.2-0.2-0.1-0.3c0.5-0.9,0.8-1.9,0.8-3c0-0.8-0.1-1.7-0.2-2.5
		c-0.1-1.2-0.1-2.3,0.1-3.5c0.1-0.8,0.2-1.6,0.2-2.4c0-0.4-0.1-0.7-0.3-1.1c-1.3-3.2-3.4-5.7-6.5-7.2c-0.1,0-0.1,0-0.2-0.1
		c0.4-0.1,0.7-0.1,1-0.2c0.7-0.1,1.4-0.1,2.1-0.1c2.2,0,4.2,0.6,6,2c0.6,0.5,1.1,1,1.6,1.6c0.3,0.4,0.4,0.8,0.4,1.3
		c0.2,1.4,0,2.8-0.3,4.2C151.2,641,149.6,644.8,147.4,648.3C147.5,648.2,147.4,648.3,147.4,648.3L147.4,648.3z"/>
	<path class="st32" d="M134.4,642.5c0,1.2-0.3,2.4-0.8,3.6c-0.4,0.9-0.7,1.9-1.1,2.8c0,0.1-0.1,0.2-0.2,0.1c-1.1,0-1.9-0.5-2.7-1.2
		c-0.7-0.8-1.2-1.7-1.2-2.7c0-0.5,0-1,0-1.5c0-0.7,0.1-1.3,0.1-2c0-0.9,0-1.7-0.1-2.6c0-0.2,0-0.3,0.2-0.4c1-0.6,2-1,3.2-1.1
		c0.3,0,0.6,0,0.9,0.1c0.7,0.2,1,0.7,1.2,1.4C134.2,640,134.4,641.2,134.4,642.5L134.4,642.5z M132.2,638c-0.2,0-0.4,0.1-0.6,0.1
		c-0.2,0.1-0.3,0.3-0.2,0.5c0.3,0.7,1.2,1.1,1.9,0.4c0.3-0.3,0.2-0.6-0.1-0.8C132.9,638.1,132.5,638,132.2,638L132.2,638z"/>
	<path class="st33" d="M146.5,647l-0.1-0.1c-0.5-1-1.1-2-1.6-3c-0.6-1.1-1.1-2.2-1.4-3.4c-0.1-0.5-0.2-1.1-0.2-1.6
		c0.1-1,0.8-1.4,1.5-1.5c0.7-0.2,1.4-0.1,2.1,0c0.1,0,0.1,0.1,0.1,0.2c-0.1,0.6-0.1,1.3-0.2,1.9c-0.1,0.9-0.2,1.8-0.1,2.6
		c0.1,1,0.2,2,0.2,3.1C146.8,645.8,146.7,646.4,146.5,647C146.6,646.9,146.5,647,146.5,647L146.5,647L146.5,647z M145,638.9
		c0.4,0,0.8-0.3,1-0.7c0.1-0.2,0.1-0.4-0.2-0.5c-0.6-0.2-1.1-0.1-1.6,0.2c-0.2,0.1-0.2,0.3-0.1,0.5
		C144.4,638.8,144.7,638.9,145,638.9L145,638.9z"/>
	<path class="st32" d="M129.1,653.2c0.4-0.1,0.8-0.2,1.1-0.3s0.5-0.1,0.8-0.2c0.7-0.2,1.3-0.6,1.7-1.2c0.2-0.3,0.5-0.6,0.7-0.9
		c0.3-0.3,0.5-0.3,0.8-0.1c0.5,0.3,0.7,1.1,0.3,1.6c-0.8,1.1-1.9,1.6-3.3,1.6c-0.6,0-1.2-0.1-1.9-0.3
		C129.3,653.5,129.2,653.4,129.1,653.2C129.1,653.3,129.1,653.3,129.1,653.2L129.1,653.2z"/>
	<path class="st32" d="M152.2,650.7c-0.6,0.5-1.3,1-2.1,1.2c-1,0.3-2.1,0.4-3.2,0.3c-0.1,0-0.2,0-0.4-0.1c-0.5-0.1-0.4-0.1-0.4-0.6
		c0-0.1,0-0.2,0.1-0.4c0.1-0.3,0.3-0.6,0.6-0.7c0.1,0,0.2-0.1,0.3-0.1s0.2,0,0.2,0c0.4,0.3,1,0.4,1.5,0.5c1.1,0.1,2.1,0,3.2-0.2
		C152.1,650.7,152.2,650.7,152.2,650.7L152.2,650.7z"/>
	<path class="st19" d="M132.2,638c0.4,0,0.7,0.1,1,0.3c0.4,0.2,0.4,0.5,0.1,0.8c-0.7,0.7-1.6,0.3-1.9-0.4c-0.1-0.2,0-0.4,0.2-0.5
		S132,638,132.2,638L132.2,638z"/>
	<path class="st19" d="M145,638.9c-0.3,0-0.6-0.2-0.8-0.4c-0.1-0.2-0.1-0.4,0.1-0.5c0.5-0.3,1-0.4,1.6-0.2c0.2,0.1,0.3,0.2,0.2,0.5
		C145.8,638.7,145.4,638.9,145,638.9L145,638.9z"/>
</g>
<linearGradient id="SVGID_00000006704530026845924640000003784789640246669243_" gradientUnits="userSpaceOnUse" x1="166.3996" y1="401.4073" x2="42.5797" y2="395.7773" gradientTransform="matrix(1 0 0 1 0 82)">
	<stop  offset="0" style="stop-color:#213567"/>
	<stop  offset="1" style="stop-color:#0A193D;stop-opacity:0"/>
</linearGradient>
<path style="opacity:0.75;fill:url(#SVGID_00000006704530026845924640000003784789640246669243_);enable-background:new    ;" d="
	M108.9,450.6H162c17.4,0,31.4,14.1,31.4,31.4l0,0c0,17.4-14.1,31.4-31.4,31.4h-53.1c-17.4,0-31.4-14.1-31.4-31.4l0,0
	C77.5,464.6,91.6,450.6,108.9,450.6z"/>
<g class="st35">
	<g>
		<g>
			<defs>
				<rect id="SVGID_00000168797140487219019260000009492400898947773099_" x="118.1" y="457.2" width="34.7" height="49.5"/>
			</defs>
			<clipPath id="SVGID_00000054953440180333931790000002495347594631708846_">
				<use xlink:href="#SVGID_00000168797140487219019260000009492400898947773099_"  style="overflow:visible;"/>
			</clipPath>
			<g style="clip-path:url(#SVGID_00000054953440180333931790000002495347594631708846_);">
				
					<image style="overflow:visible;enable-background:new    ;" width="795" height="358" xlink:href="../../../../D05894B1D15C3D3A.png"  transform="matrix(0.1608 0 0 0.1608 107.4137 453.7776)">
				</image>
			</g>
		</g>
	</g>
</g>
<linearGradient id="SVGID_00000152964536561513233650000003349359054063868594_" gradientUnits="userSpaceOnUse" x1="166.4028" y1="479.0074" x2="42.5829" y2="473.3774" gradientTransform="matrix(1 0 0 1 0 82)">
	<stop  offset="0" style="stop-color:#213567"/>
	<stop  offset="1" style="stop-color:#0A193D;stop-opacity:0"/>
</linearGradient>
<path style="fill:url(#SVGID_00000152964536561513233650000003349359054063868594_);" d="M108.9,528.2H162
	c17.4,0,31.4,14.1,31.4,31.4l0,0c0,17.4-14.1,31.4-31.4,31.4h-53.1c-17.4,0-31.4-14.1-31.4-31.4l0,0
	C77.5,542.3,91.6,528.2,108.9,528.2z"/>
<g>
	<path class="st38" d="M132.1,543.7c0,0,0.1,0,0.2,0c0.9,0.2,1.5,0.9,1.6,1.8c0,0.1,0,0.3,0,0.4c0,2.5,0,5,0,7.5
		c0,0.8-0.4,1.5-1.2,1.8c-0.5,0.2-1.1,0.3-1.6,0c-0.4-0.2-0.8-0.4-1.1-0.6c-1.1-0.6-2.1-1.2-3.1-1.8c-0.9-0.5-1.9-1.1-2.8-1.6
		c-0.6-0.4-1-1-0.9-1.7c0-0.8,0.4-1.4,1.1-1.7s1.3-0.3,1.9,0.1c1.2,0.7,2.5,1.4,3.7,2.1c0,0,0,0,0.1,0v-0.1c0-1.4,0-2.9,0-4.3
		c0-0.7,0.4-1.3,1-1.7c0.2-0.1,0.4-0.2,0.7-0.2c0,0,0,0,0.1,0H132.1L132.1,543.7z"/>
	<path class="st38" d="M139.4,543.7c0.1,0,0.1,0,0.2,0c0.8,0.2,1.4,0.8,1.5,1.6c0,0.1,0,0.3,0,0.4c0,1.4,0,2.8,0,4.1v0.1h0.1
		c1.2-0.7,2.4-1.4,3.6-2.1c0.2-0.1,0.4-0.2,0.7-0.3c0.8-0.1,1.5,0.1,2,0.8c0.3,0.4,0.4,0.8,0.4,1.2c0,0.8-0.4,1.3-1.1,1.7
		c-1.1,0.7-2.3,1.3-3.4,1.9c-0.9,0.5-1.9,1.1-2.8,1.6c-0.3,0.2-0.6,0.4-0.9,0.5c-1.2,0.5-2.6-0.4-2.7-1.7c0-0.1,0-0.2,0-0.3
		c0-2.6,0-5.2,0-7.8c0-0.9,0.7-1.7,1.6-1.9c0.1,0,0.1,0,0.1,0h0.7V543.7z"/>
	<path class="st38" d="M133.9,569.8c0,1.3,0,2.5,0,3.8c0,0.8-0.3,1.4-1,1.8c-0.8,0.5-1.9,0.3-2.5-0.5c-0.3-0.4-0.5-0.8-0.5-1.3
		c0-1.4,0-2.8,0-4.2c0-0.1,0-0.1-0.1-0.1c-1.2,0.7-2.3,1.3-3.5,2c-0.3,0.2-0.7,0.4-1.1,0.4c-0.2,0-0.4,0-0.6-0.1
		c-0.8-0.2-1.4-0.8-1.5-1.6s0.2-1.5,0.9-2c0.7-0.4,1.3-0.8,2-1.2c1.5-0.9,3-1.7,4.5-2.6c0.3-0.2,0.6-0.3,0.9-0.4
		c1.2-0.3,2.4,0.5,2.5,1.8c0,0.2,0,0.3,0,0.4C133.9,567.4,133.9,568.6,133.9,569.8L133.9,569.8z"/>
	<path class="st38" d="M141.1,569.3L141.1,569.3c0,1.5,0,2.9,0,4.3c0,0.5-0.1,0.9-0.5,1.3c-0.3,0.4-0.8,0.6-1.3,0.7
		c-0.7,0.1-1.2-0.1-1.7-0.6c-0.4-0.4-0.6-0.9-0.6-1.4c0-2.6,0-5.1,0-7.7c0-0.2,0-0.5,0.1-0.7c0.3-0.8,0.9-1.2,1.7-1.3
		c0.5-0.1,1,0.1,1.4,0.4c1.2,0.7,2.5,1.4,3.7,2.1c1,0.6,1.9,1.1,2.9,1.7c0.6,0.4,1.1,1.2,1,1.9c-0.1,0.9-0.6,1.5-1.4,1.7
		c-0.2,0.1-0.4,0.1-0.6,0.1c-0.3,0-0.7-0.1-1-0.3C143.6,570.8,142.4,570.1,141.1,569.3C141.2,569.3,141.1,569.3,141.1,569.3
		L141.1,569.3z"/>
	<path class="st38" d="M151.6,555.6c0,0.4,0,0.7-0.2,1.1c-0.2,0.4-0.5,0.7-0.9,0.9c-1.2,0.7-2.3,1.3-3.5,2c-0.1,0-0.2,0-0.2,0.1
		s0.1,0.1,0.2,0.1c1,0.6,1.9,1.1,2.9,1.7c0.3,0.2,0.6,0.3,0.8,0.5c0.6,0.4,0.8,1,0.8,1.7v0.1c-0.1,0.8-0.5,1.4-1.2,1.7
		c-0.6,0.3-1.3,0.2-1.9-0.1c-1.3-0.8-2.6-1.5-3.9-2.3c-1-0.5-1.9-1.1-2.9-1.7c-0.6-0.4-0.9-0.9-0.9-1.6c0-0.8,0.3-1.3,0.9-1.7
		c0.6-0.4,1.3-0.8,1.9-1.1c0.9-0.5,1.9-1.1,2.9-1.6c0.7-0.4,1.4-0.8,2-1.2c1.2-0.7,2.6-0.1,3,1.2
		C151.5,555.4,151.5,555.5,151.6,555.6L151.6,555.6z"/>
	<path class="st38" d="M119.4,556c0-0.1,0-0.3,0-0.4c0.1-0.7,0.5-1.3,1.1-1.6c0.7-0.3,1.4-0.2,2,0.2c1.5,0.9,3.1,1.8,4.6,2.7
		c0.7,0.4,1.3,0.8,2,1.1c0.6,0.3,0.9,0.8,1,1.4c0.1,0.7-0.2,1.5-0.9,2c-0.8,0.5-1.5,0.9-2.3,1.3c-1.5,0.9-3,1.7-4.5,2.6
		c-0.3,0.2-0.6,0.3-0.9,0.3c-0.9,0.1-1.8-0.5-2.1-1.4c0-0.1-0.1-0.3-0.1-0.4c0-0.1,0-0.3,0-0.4c0.1-0.7,0.4-1.2,1-1.5
		c1.2-0.7,2.5-1.4,3.8-2.1l0,0l-0.1-0.1c-1.2-0.7-2.5-1.4-3.7-2.2C119.8,557.1,119.5,556.6,119.4,556L119.4,556z"/>
	<path class="st38" d="M135.5,563.4c-0.1,0-0.2,0-0.4,0s-0.3-0.1-0.5-0.2c-0.9-0.9-1.9-1.8-2.8-2.8c-0.1-0.1-0.1-0.2-0.1-0.4
		c0-0.3,0-0.5,0-0.8c0-0.2,0.1-0.3,0.2-0.4c0.9-0.9,1.8-1.8,2.7-2.7c0.1-0.2,0.3-0.2,0.5-0.2s0.4,0,0.6,0c0.2,0,0.4,0.1,0.6,0.2
		c0.9,0.9,1.8,1.8,2.7,2.6c0.2,0.2,0.2,0.3,0.2,0.6c0,0.1,0,0.2,0,0.3c0,0.6,0,0.5-0.4,0.9c-0.9,0.8-1.7,1.7-2.6,2.6
		c-0.1,0.1-0.2,0.2-0.4,0.2C135.8,563.4,135.6,563.4,135.5,563.4L135.5,563.4z M136.8,559.7c0-0.1,0-0.3-0.1-0.4
		c-0.3-0.3-0.6-0.6-0.9-0.8c-0.2-0.2-0.5-0.2-0.7,0c-0.3,0.3-0.6,0.5-0.8,0.8c-0.2,0.2-0.2,0.5,0,0.8c0.3,0.3,0.5,0.5,0.8,0.8
		c0.2,0.2,0.5,0.2,0.7,0c0.3-0.2,0.6-0.5,0.8-0.8C136.8,560,136.8,559.8,136.8,559.7L136.8,559.7z"/>
</g>
<g class="st39">
	<rect x="327.2" y="327.8" class="st40" width="4.4" height="32.2"/>
	<rect x="335.7" y="327.8" class="st40" width="4.4" height="36.6"/>
	<rect x="344.6" y="327.8" class="st40" width="4.4" height="36.6"/>
	<rect x="353" y="327.8" class="st40" width="4.4" height="36.6"/>
	<rect x="361.9" y="342.9" class="st40" width="4.4" height="6.8"/>
	<rect x="327.2" y="360" class="st41" width="4.4" height="4.4"/>
</g>
<g>
	
		<linearGradient id="SVGID_00000111910744734366469310000005946091611599150481_" gradientUnits="userSpaceOnUse" x1="397.6425" y1="716.5048" x2="273.8325" y2="710.8748" gradientTransform="matrix(1 0 0 1 0 82)">
		<stop  offset="0" style="stop-color:#213567"/>
		<stop  offset="1" style="stop-color:#0A193D;stop-opacity:0"/>
	</linearGradient>
	<path style="opacity:0.54;fill:url(#SVGID_00000111910744734366469310000005946091611599150481_);enable-background:new    ;" d="
		M340.2,765.7h53.1c17.4,0,31.4,14.1,31.4,31.4l0,0c0,17.4-14.1,31.4-31.4,31.4h-53.1c-17.4,0-31.4-14.1-31.4-31.4l0,0
		C308.7,779.8,322.8,765.7,340.2,765.7z"/>
	<path class="st43" d="M381.2,790.7c-1.4,0.8-2.6,1.4-3.8,2.1c-3.4,1.9-6.8,3.8-10.2,5.7c-0.3,0.2-0.5,0.2-0.8,0
		c-5-2.8-10.1-5.6-15.1-8.4c-0.5-0.3-0.5-0.9,0.1-1.2c4.8-2.7,9.5-5.3,14.3-7.9c0.4-0.2,0.8-0.4,1.1-0.7c2.9,1.6,5.8,3.2,8.7,4.9
		c0.9,0.5,1.8,1,2.8,1.5c0.4,0.2,0.6,0.5,0.5,0.9c-0.1,0.3-0.9,0.5-1.2,0.3c-1.6-0.9-3.1-1.7-4.7-2.6c-1.9-1-3.8-2.1-5.7-3.1
		c-0.2-0.1-0.5-0.2-0.7-0.1c-4.5,2.5-9,5-13.5,7.5c0.6,0.4,1.2,0.7,1.8,1c3.8,2.1,7.6,4.2,11.4,6.4c0.4,0.2,0.8,0.3,1.2,0
		c4.3-2.4,8.6-4.8,12.9-7.2c0.4-0.2,0.8-0.5,1.2-0.7c0.5-0.3,1,0,1,0.6c0,1.6,0,3.3,0,4.9c0,0.4-0.1,0.6-0.4,0.7
		c-3.1,1.7-6.3,3.5-9.4,5.2c-1.8,1-3.6,2-5.5,3c-0.3,0.2-0.6,0.2-1,0c-4.4-2.4-8.8-4.9-13.2-7.3c-0.2-0.1-0.5-0.2-0.8-0.4
		c0,1.2,0,2.2,0,3.3c0,0.1,0.2,0.3,0.4,0.4c4.5,2.5,9.1,5.1,13.6,7.6c0.3,0.2,0.5,0.2,0.9,0c4.7-2.6,9.3-5.2,14-7.8
		c0.2-0.1,0.5-0.3,0.7-0.3c0.3,0,0.6,0.2,0.6,0.7c0,1.7,0,3.4,0,5.1c0,0.3-0.1,0.5-0.4,0.6c-5,2.7-9.9,5.5-14.9,8.2
		c-0.2,0.1-0.4,0.2-0.5,0.3c-3-1.7-6-3.3-9-5c-2.1-1.2-4.2-2.3-6.3-3.5c-0.5-0.3-0.7-0.8-0.5-1.1c0.3-0.4,0.7-0.4,1.1-0.2
		c3.8,2.1,7.6,4.3,11.4,6.4c1,0.6,2,1.1,3,1.7c0.1,0.1,0.4,0.1,0.6,0c4.5-2.5,9.1-5.1,13.6-7.6c0.4-0.2,0.5-0.4,0.5-0.9
		c0-0.9,0-1.9,0-2.9c-0.2,0.1-0.4,0.2-0.5,0.2c-4.5,2.5-8.9,5-13.4,7.4c-0.3,0.2-0.6,0.3-1,0.1c-5-2.8-9.9-5.5-14.9-8.2
		c-0.4-0.2-0.5-0.5-0.5-0.9c0-1.6,0-3.3,0-4.9c0-0.6,0.5-0.9,1-0.6c4.8,2.7,9.7,5.4,14.5,8.1c0.2,0.1,0.5,0.1,0.6,0
		c4.6-2.5,9.1-5.1,13.7-7.6c0.3-0.2,0.5-0.4,0.4-0.7C381.1,792.8,381.2,791.8,381.2,790.7L381.2,790.7z"/>
</g>
<g class="st44">
	<g>
		<line class="st0" x1="426.5" y1="558.5" x2="189.6" y2="558.5"/>
		
			<linearGradient id="SVGID_00000079485540824470076530000012756107172007731094_" gradientUnits="userSpaceOnUse" x1="169.05" y1="477.6414" x2="633.7401" y2="473.6713" gradientTransform="matrix(1 0 0 1 0 82)">
			<stop  offset="0" style="stop-color:#FFFFFF;stop-opacity:0"/>
			<stop  offset="1" style="stop-color:#FFFFFF;stop-opacity:0.75"/>
		</linearGradient>
		<path style="fill:url(#SVGID_00000079485540824470076530000012756107172007731094_);" d="M426.5,559.2h-4v-1.5h4V559.2z
			 M418.5,559.2h-4v-1.5h4V559.2z M410.5,559.2h-4v-1.5h4V559.2z M402.5,559.2h-4v-1.5h4V559.2z M394.5,559.2h-4v-1.5h4V559.2z
			 M386.5,559.2h-4v-1.5h4V559.2z M378.5,559.2h-4v-1.5h4V559.2z M370.5,559.2h-4v-1.5h4V559.2z M362.5,559.2h-4v-1.5h4V559.2z
			 M354.5,559.2h-4v-1.5h4V559.2z M346.5,559.2h-4v-1.5h4V559.2z M338.5,559.2h-4v-1.5h4V559.2z M330.5,559.2h-4v-1.5h4V559.2z
			 M322.5,559.2h-4v-1.5h4V559.2z M314.5,559.2h-4v-1.5h4V559.2z M306.5,559.2h-4v-1.5h4V559.2z M298.5,559.2h-4v-1.5h4V559.2z
			 M290.5,559.2h-4v-1.5h4V559.2z M282.5,559.2h-4v-1.5h4V559.2z M274.5,559.2h-4v-1.5h4V559.2z M266.5,559.2h-4v-1.5h4V559.2z
			 M258.5,559.2h-4v-1.5h4V559.2z M250.5,559.2h-4v-1.5h4V559.2z M242.5,559.2h-4v-1.5h4V559.2z M234.5,559.2h-4v-1.5h4V559.2z
			 M226.5,559.2h-4v-1.5h4V559.2z M218.5,559.2h-4v-1.5h4V559.2z M210.5,559.2h-4v-1.5h4V559.2z M202.5,559.2h-4v-1.5h4V559.2z
			 M194.5,559.2h-4v-1.5h4V559.2z"/>
	</g>
	
		<linearGradient id="SVGID_00000127036666660943812360000003139786425168023435_" gradientUnits="userSpaceOnUse" x1="168.2697" y1="386.7633" x2="632.9697" y2="382.8034" gradientTransform="matrix(1 0 0 1 0 82)">
		<stop  offset="0" style="stop-color:#FFFFFF;stop-opacity:0"/>
		<stop  offset="1" style="stop-color:#FFFFFF;stop-opacity:0.75"/>
	</linearGradient>
	<path style="fill:url(#SVGID_00000127036666660943812360000003139786425168023435_);" d="M354,557.7c-1.4-0.4-2.6-1-3.8-1.9
		l0.9-1.2c1,0.7,2.1,1.3,3.3,1.7L354,557.7L354,557.7z M347.3,552.8c-0.8-1.2-1.4-2.5-1.7-3.9l1.5-0.4c0.3,1.2,0.8,2.3,1.5,3.4
		L347.3,552.8L347.3,552.8z M346.7,544.8h-1.5v-4h1.5V544.8z M346.7,536.8h-1.5v-4h1.5V536.8z M346.7,528.8h-1.5v-4h1.5V528.8z
		 M346.7,520.8h-1.5v-4h1.5V520.8z M346.7,512.8h-1.5v-4h1.5V512.8z M346.7,504.8h-1.5v-4h1.5V504.8z M346.7,496.8h-1.5v-4h1.5
		V496.8z M345.1,488.8c-0.1-1.2-0.4-2.5-0.9-3.6l1.4-0.6c0.6,1.3,0.9,2.7,1,4.1L345.1,488.8z M342.2,482.1c-0.9-0.9-1.9-1.7-3-2.2
		l0.7-1.3c1.3,0.7,2.4,1.5,3.4,2.6L342.2,482.1z M335.7,478.7c-0.5-0.1-1-0.1-1.5-0.1h-2.4v-1.5h2.4c0.5,0,1.1,0,1.7,0.1
		L335.7,478.7L335.7,478.7z M327.8,478.6h-4v-1.5h4V478.6z M319.8,478.6h-4v-1.5h4V478.6z M311.8,478.6h-4v-1.5h4V478.6z
		 M303.8,478.6h-4v-1.5h4V478.6z M295.8,478.6h-4v-1.5h4V478.6z M287.8,478.6h-4v-1.5h4V478.6z M279.8,478.6h-4v-1.5h4V478.6z
		 M271.8,478.6c-1.4,0-2.8-0.3-4.2-0.8l0.5-1.4c1.2,0.5,2.4,0.7,3.6,0.7L271.8,478.6L271.8,478.6z M264,475.6c-1.1-0.9-2-2-2.7-3.3
		l1.3-0.7c0.6,1.1,1.4,2.1,2.4,2.9L264,475.6L264,475.6z M259.9,468.3c-0.1-0.7-0.2-1.4-0.2-2.1v-2h1.5v2c0,0.6,0,1.3,0.2,1.9
		L259.9,468.3L259.9,468.3z M261.2,460.2h-1.5v-4h1.5V460.2z M261.2,452.2h-1.5v-4h1.5V452.2z M261.2,444.2h-1.5v-4h1.5V444.2z
		 M261.2,436.2h-1.5v-4h1.5V436.2z M261.2,428.2h-1.5v-4h1.5V428.2z M261.2,420.2h-1.5v-4h1.5V420.2z M261.2,412.2h-1.5v-4h1.5
		V412.2z M261.2,404.2h-1.5v-4h1.5V404.2z M261.2,396.2h-1.5v-4h1.5V396.2z M259.5,388.4c-0.2-1.2-0.7-2.4-1.3-3.5l1.3-0.8
		c0.7,1.2,1.2,2.6,1.5,4L259.5,388.4L259.5,388.4z M255.8,382.1c-1-0.8-2.1-1.4-3.2-1.9l0.5-1.4c1.3,0.5,2.6,1.2,3.7,2.1
		L255.8,382.1L255.8,382.1z M248.9,379.5h-4V378h3.9l0.1,0.8V379.5z M240.9,379.5h-4V378h4V379.5z M232.9,379.5h-4V378h4V379.5z
		 M224.9,379.5h-4V378h4V379.5z M216.9,379.5h-4V378h4V379.5z M208.9,379.5h-4V378h4V379.5z M200.9,379.5h-4V378h4V379.5z"/>
	
		<linearGradient id="SVGID_00000079466633386104147550000011620118137727285945_" gradientUnits="userSpaceOnUse" x1="169.4201" y1="521.1094" x2="634.1101" y2="517.1494" gradientTransform="matrix(1 0 0 1 0 82)">
		<stop  offset="0" style="stop-color:#FFFFFF;stop-opacity:0"/>
		<stop  offset="1" style="stop-color:#FFFFFF;stop-opacity:0.75"/>
	</linearGradient>
	<path style="fill:url(#SVGID_00000079466633386104147550000011620118137727285945_);" d="M242.9,646.8v-1.5h3.9l0.1,1.5H242.9
		L242.9,646.8z M238.9,646.8h-4v-1.5h4V646.8z M230.9,646.8h-4v-1.5h4V646.8z M222.9,646.8h-4v-1.5h4V646.8z M214.9,646.8h-4v-1.5h4
		V646.8z M206.9,646.8h-4v-1.5h4V646.8z M198.9,646.8h-4v-1.5h4V646.8z M251.1,646l-0.5-1.4c1.2-0.4,2.3-1,3.2-1.9l1,1.2
		C253.7,644.8,252.5,645.6,251.1,646L251.1,646z M257.5,640.7l-1.3-0.8c0.6-1.1,1.1-2.2,1.3-3.5l1.5,0.3
		C258.8,638.1,258.3,639.5,257.5,640.7L257.5,640.7z M259.3,632.6h-1.5v-4h1.5V632.6z M259.3,624.6h-1.5v-4h1.5V624.6z M259.3,616.6
		h-1.5v-4h1.5V616.6z M259.3,608.6h-1.5v-4h1.5V608.6z M259.3,600.6h-1.5v-4h1.5V600.6z M259.3,592.6h-1.5v-4h1.5V592.6z
		 M259.3,584.6h-1.5v-4h1.5V584.6z M259.3,576.6h-1.5v-4h1.5V576.6z M257.6,568.7c-0.2-1.2-0.6-2.4-1.2-3.5l1.3-0.7
		c0.7,1.2,1.1,2.6,1.4,4L257.6,568.7L257.6,568.7z M254.1,562.3c-0.9-0.8-2-1.5-3.2-2l0.6-1.4c1.3,0.5,2.5,1.3,3.6,2.2L254.1,562.3
		L254.1,562.3z M247.3,559.6c-0.1,0-0.3,0-0.4,0h-0.2v-1.5h0.2c0.2,0,0.3,0,0.5,0L247.3,559.6z"/>
	
		<linearGradient id="SVGID_00000166666140637707031830000013509785231548795562_" gradientUnits="userSpaceOnUse" x1="168.67" y1="433.1176" x2="633.36" y2="429.1575" gradientTransform="matrix(1 0 0 1 0 82)">
		<stop  offset="0" style="stop-color:#FFFFFF;stop-opacity:0"/>
		<stop  offset="1" style="stop-color:#FFFFFF;stop-opacity:0.75"/>
	</linearGradient>
	<path style="fill:url(#SVGID_00000166666140637707031830000013509785231548795562_);" d="M231.1,558.8l-0.4-1.4
		c1.2-0.4,2.3-0.9,3.3-1.7l0.9,1.2C233.7,557.8,232.5,558.4,231.1,558.8L231.1,558.8z M237.8,553.8l-1.2-0.8c0.7-1,1.2-2.2,1.5-3.4
		l1.5,0.4C239.2,551.3,238.6,552.6,237.8,553.8L237.8,553.8z M239.8,545.8h-1.5v-4h1.5V545.8z M239.8,537.8h-1.5v-4h1.5V537.8z
		 M239.8,529.8h-1.5v-4h1.5V529.8z M239.8,521.8h-1.5v-4h1.5V521.8z M239.8,513.8h-1.5v-4h1.5V513.8z M239.8,505.8h-1.5v-4h1.5
		V505.8z M239.8,497.8h-1.5v-4h1.5V497.8z M239.8,489.8h-1.5v-4h1.5V489.8z M238.3,481.9c-0.1-1.2-0.5-2.5-1-3.6l1.4-0.7
		c0.6,1.3,1,2.6,1.2,4.1L238.3,481.9L238.3,481.9z M235.1,475.3c-0.9-0.9-1.9-1.6-3.1-2.1l0.6-1.4c1.3,0.6,2.5,1.4,3.5,2.4
		L235.1,475.3L235.1,475.3z M228.4,472.2c-0.3,0-0.6,0-1,0h-3v-1.5h3c0.4,0,0.7,0,1.1,0L228.4,472.2L228.4,472.2z M220.5,472.2h-4
		v-1.5h4V472.2z M212.5,472.2h-4v-1.5h4V472.2z M204.5,472.2h-4v-1.5h4V472.2z M196.5,472.2h-4v-1.5h4V472.2z"/>
	
		<linearGradient id="SVGID_00000171687298360350131220000016955646123108900779_" gradientUnits="userSpaceOnUse" x1="169.7602" y1="561.5302" x2="634.4602" y2="557.5703" gradientTransform="matrix(1 0 0 1 0 82)">
		<stop  offset="0" style="stop-color:#FFFFFF;stop-opacity:0"/>
		<stop  offset="1" style="stop-color:#FFFFFF;stop-opacity:0.75"/>
	</linearGradient>
	<path style="fill:url(#SVGID_00000171687298360350131220000016955646123108900779_);" d="M291.5,726.6h-1.1v-1.5h1.1
		c0.9,0,1.8-0.1,2.7-0.3l0.4,1.5C293.6,726.5,292.6,726.6,291.5,726.6z M286.4,726.6h-4v-1.5h4V726.6z M278.4,726.6h-4v-1.5h4V726.6
		z M270.4,726.6h-4v-1.5h4V726.6z M262.4,726.6h-4v-1.5h4V726.6z M254.4,726.6h-4v-1.5h4V726.6z M246.4,726.6h-4v-1.5h4V726.6z
		 M238.4,726.6h-4v-1.5h4V726.6z M230.4,726.6h-4v-1.5h4V726.6z M222.4,726.6h-4v-1.5h4V726.6z M214.4,726.6h-4v-1.5h4V726.6z
		 M206.4,726.6h-4v-1.5h4V726.6z M198.4,726.6h-4v-1.5h4V726.6z M298.4,724.5l-0.8-1.2c1-0.7,2-1.6,2.7-2.6l1.2,0.9
		C300.6,722.7,299.6,723.7,298.4,724.5L298.4,724.5z M303.4,717.8l-1.4-0.4c0.3-1,0.5-2.1,0.5-3.2v-0.6h1.5v0.6
		C303.9,715.4,303.7,716.6,303.4,717.8L303.4,717.8z M303.9,709.6h-1.5v-4h1.5V709.6z M303.9,701.6h-1.5v-4h1.5V701.6z M303.9,693.6
		h-1.5v-4h1.5V693.6z M303.9,685.6h-1.5v-4h1.5V685.6z M303.9,677.6h-1.5v-4h1.5V677.6z M303.9,669.6h-1.5v-4h1.5V669.6z
		 M303.9,661.6h-1.5v-4h1.5V661.6z M303.9,653.6h-1.5v-4h1.5V653.6z M303.9,645.6h-1.5v-4h1.5V645.6z M303.9,637.6h-1.5v-4h1.5
		V637.6z M303.9,629.6h-1.5v-4h1.5V629.6z M303.9,621.6h-1.5v-4h1.5V621.6z M303.9,613.6h-1.5v-4h1.5V613.6z M303.9,605.6h-1.5v-4
		h1.5V605.6z M303.9,597.6h-1.5v-4h1.5V597.6z M303.9,589.6h-1.5v-4h1.5V589.6z M303.9,581.6h-1.5v-4h1.5V581.6z M303.9,573.6h-1.5
		v-3.1c0-0.3,0-0.6,0-0.9l1.5,0.1c0,0.3,0,0.5,0,0.8V573.6L303.9,573.6z M304.9,566.1l-1.4-0.6c0.6-1.3,1.4-2.5,2.4-3.5l1.1,1
		C306.1,563.9,305.4,564.9,304.9,566.1z M309.9,560.7l-0.7-1.3c1.3-0.6,2.6-1.1,4-1.2l0.2,1.5C312.2,559.8,311,560.2,309.9,560.7
		L309.9,560.7z"/>
	
		<linearGradient id="SVGID_00000080909167780450608830000013494754448470483334_" gradientUnits="userSpaceOnUse" x1="169.9397" y1="582.6946" x2="634.6397" y2="578.7247" gradientTransform="matrix(1 0 0 1 0 82)">
		<stop  offset="0" style="stop-color:#FFFFFF;stop-opacity:0"/>
		<stop  offset="1" style="stop-color:#FFFFFF;stop-opacity:0.75"/>
	</linearGradient>
	<path style="fill:url(#SVGID_00000080909167780450608830000013494754448470483334_);" d="M358.3,767.2h-1.5v-4h1.5V767.2z
		 M358.3,759.2h-1.5v-4h1.5V759.2z M358.3,751.2h-1.5v-4h1.5V751.2z M358.3,743.2h-1.5v-4h1.5V743.2z M358.3,735.2h-1.5v-4h1.5
		V735.2z M358.3,727.2h-1.5v-4h1.5V727.2z M358.3,719.2h-1.5v-4h1.5V719.2z M358.3,711.2h-1.5v-4h1.5V711.2z M358.3,703.2h-1.5v-4
		h1.5V703.2z M358.3,695.2h-1.5v-4h1.5V695.2z M358.3,687.2h-1.5v-4h1.5V687.2z M358.3,679.2h-1.5v-4h1.5V679.2z M358.3,671.2h-1.5
		v-4h1.5V671.2z M358.3,663.2h-1.5v-4h1.5V663.2z M358.3,655.2h-1.5v-4h1.5V655.2z M358.3,647.2h-1.5v-4h1.5V647.2z M358.3,639.2
		h-1.5v-4h1.5V639.2z M358.3,631.2h-1.5v-4h1.5V631.2z M358.3,623.2h-1.5v-4h1.5V623.2z M358.3,615.2h-1.5v-4h1.5V615.2z
		 M358.3,607.2h-1.5v-4h1.5V607.2z M358.3,599.2h-1.5v-4h1.5V599.2z M358.3,591.2h-1.5v-4h1.5V591.2z M358.3,583.2h-1.5v-4h1.5
		V583.2z M358.3,575.2h-1.5v-4h1.5V575.2z M358.9,567.5l-1.4-0.5c0.5-1.3,1.1-2.6,2-3.7l1.2,0.9
		C359.9,565.3,359.3,566.4,358.9,567.5z M363.5,561.8l-0.8-1.3c1.2-0.8,2.5-1.3,3.9-1.6l0.3,1.5
		C365.7,560.7,364.5,561.1,363.5,561.8L363.5,561.8z"/>
	
		<linearGradient id="SVGID_00000100372781195193890860000014893321032207612079_" gradientUnits="userSpaceOnUse" x1="168.0098" y1="356.2163" x2="632.7098" y2="352.2563" gradientTransform="matrix(1 0 0 1 0 82)">
		<stop  offset="0" style="stop-color:#FFFFFF;stop-opacity:0"/>
		<stop  offset="1" style="stop-color:#FFFFFF;stop-opacity:0.75"/>
	</linearGradient>
	<path style="fill:url(#SVGID_00000100372781195193890860000014893321032207612079_);" d="M346.7,489h-1.5v-4h1.5V489z M346.7,481
		h-1.5v-4h1.5V481z M346.7,473h-1.5v-4h1.5V473z M346.7,465h-1.5v-4h1.5V465z M346.7,457h-1.5v-4h1.5V457z M346.7,449h-1.5v-4h1.5
		V449z M346.7,441h-1.5v-4h1.5V441z M346.7,433h-1.5v-4h1.5V433z M346.7,425h-1.5v-4h1.5V425z M346.7,417h-1.5v-4h1.5V417z
		 M346.7,409h-1.5v-4h1.5V409z M346.7,401h-1.5v-4h1.5V401z M346.7,393h-1.5v-4h1.5V393z M346.7,385h-1.5v-0.6h1.5V385z"/>
</g>
<path class="st52" d="M949,579.8h193 M949,552.7h95.2c11.3,0,21.3-7.4,24.9-18.3l23.7-71.5c3.6-11,13.6-18.3,24.9-18.3h24.3
	 M949,606.8h95.2c11.3,0,21.3,7.4,24.9,18.4l23.5,71.4c3.6,11,13.6,18.4,24.9,18.4h24.5"/>
</svg>
