<svg width="628" height="315" viewBox="0 0 628 315" fill="none" xmlns="http://www.w3.org/2000/svg">
  <style>
.up-down{
  animation: up-down linear infinite 20s;
  animation-iteration-count: infinite;
  transform-origin: 50% 50%;
  -webkit-animation: up-down linear 4s;
  -webkit-animation-iteration-count: infinite;
  -webkit-transform-origin: 50% 50%;
  -moz-animation: up-down linear 4s;
  -moz-animation-iteration-count: infinite;
  -moz-transform-origin: 50% 50%;
  -o-animation: up-down linear 4s;
  -o-animation-iteration-count: infinite;
  -o-transform-origin: 50% 50%;
  -ms-animation: up-down linear 4s;
  -ms-animation-iteration-count: infinite;
  -ms-transform-origin: 50% 50%;
}

@keyframes up-down{
  0% {
    transform:  translate(1px,0px)  ;
  }
  24% {
    transform:  translate(1px,-3px)  ;
  }
  50% {
    transform:  translate(1px,0px)  ;
  }
  74% {
    transform:  translate(1px,-3px)  ;
  }
  100% {
    transform:  translate(1px,0px)  ;
  }
}

    </style>
<rect width="628" height="314.2" fill="#121827"/>
<path d="M281.725 191.4V123.5H296.125V191.4H281.725ZM290.325 191.4V180.2H307.325C312.425 180.2 316.325 179.1 319.925 177.3C323.225 175.5 326.025 172.6 327.825 169C329.625 165.4 330.325 161.8 330.325 157.1C330.325 152.8 329.625 148.8 327.825 145.5C326.025 142.2 323.525 139.7 320.225 137.6C316.925 135.8 312.625 134.7 307.625 134.7H290.625V123.5H307.625C315.225 123.5 321.725 124.9 327.525 127.5C333.325 130.4 337.625 134 340.525 139.1C343.825 144.2 345.225 150.3 345.225 157.2C345.225 164.1 343.825 170.2 340.525 175.3C337.225 180.4 332.925 184.3 327.525 187.2C321.725 190.1 315.225 191.5 307.625 191.5H290.325V191.4Z" fill="white"/>
<path d="M366.925 191.4L348.125 143.4H363.325L378.125 188.2H370.225L385.025 143.4H399.825L381.025 191.4H366.925Z" fill="white"/>
<path d="M404.525 136.9V121.7H419.725V136.9H404.525ZM404.825 191.4V143.4H418.925V191.4H404.825Z" fill="white"/>
<path d="M452.925 192.5C447.525 192.5 442.825 191.4 438.825 189.2C434.825 187 431.925 184.1 429.825 180.5C427.625 176.9 426.525 172.6 426.525 167.5C426.525 162.4 427.625 158.1 429.825 154.5C432.025 150.9 434.925 148 438.825 145.8C442.825 143.6 447.125 142.5 452.525 142.5C457.625 142.5 461.925 143.6 465.525 145.4C469.125 147.6 472.025 150.1 473.825 153.7C476.025 157.3 476.725 161.6 476.725 166.3C476.725 167.4 476.725 168.1 476.725 169.2C476.725 169.9 476.725 171 476.325 171.7H434.825V162.3H465.125L462.625 164.1C462.625 160.1 461.525 157.2 459.725 155.4C457.925 153.6 455.425 152.5 452.125 152.5C448.525 152.5 445.625 153.6 443.425 156.1C441.225 158.6 440.525 162.2 440.525 167.3C440.525 172.4 441.625 176 443.425 178.1C445.625 180.6 448.525 181.7 452.425 181.7C454.625 181.7 456.725 181.3 458.225 180.6C460.025 179.9 461.125 178.8 461.825 177H475.225C473.825 181.7 470.925 185.3 467.325 187.8C463.725 191.1 458.625 192.5 452.925 192.5Z" fill="white"/>
<path d="M494.025 191.4L479.225 143.4H494.025L501.225 177H500.825L510.225 143.4H523.225L532.625 177H532.225L539.425 143.4H554.025L539.225 191.4H526.225L516.825 158.2H517.225L507.825 191.4H494.025Z" fill="white"/>
<path d="M77.825 172.6L142.325 209.8C147.925 213 154.725 213 160.325 209.8L224.625 172.6C229.625 169.7 229.625 162.5 224.625 159.7L160.325 122.5C154.725 119.3 147.925 119.3 142.325 122.5L77.825 159.7C72.725 162.6 72.725 169.8 77.825 172.6Z" fill="white"/>
<path class="up-down" opacity="0.84" d="M77.825 154.5L142.325 191.7C147.925 194.9 154.725 194.9 160.325 191.7L224.825 154.5C229.825 151.6 229.825 144.4 224.825 141.6L160.325 104.4C154.725 101.2 147.925 101.2 142.325 104.4L77.825 141.6C72.725 144.4 72.725 151.6 77.825 154.5Z" fill="url(#paint0_linear_2203_679)"/>
<defs>
<linearGradient id="paint0_linear_2203_679" x1="150.669" y1="138.923" x2="161.016" y2="304.465" gradientUnits="userSpaceOnUse">
<stop stop-color="#A8CBFF"/>
<stop offset="1" stop-color="#9635EE" stop-opacity="0"/>
</linearGradient>
</defs>
</svg>
